<svg width="373" height="124" viewBox="0 0 373 124" fill="none" xmlns="http://www.w3.org/2000/svg">
<path d="M24.7461 66.612C23.2997 64.9161 23.0326 62.9764 23.9951 61.3393C25.0269 59.5842 27.4923 58.9366 29.191 59.9743C29.8944 60.4039 30.2384 61.0614 30.1472 61.8054C29.9689 61.872 29.9346 61.7192 29.8695 61.632C28.9536 60.4035 27.167 60.0926 25.9914 60.9602C24.7254 61.8943 24.5243 63.674 25.5513 64.8527C26.632 66.0928 28.4104 66.4815 30.0986 65.8293C32.1726 65.0277 33.203 63.4357 33.6862 61.4766C33.9867 60.2581 33.9384 60.267 32.6895 59.8536C29.5193 58.8046 27.3549 56.8317 26.8635 53.623C26.3466 50.2473 27.2617 47.0511 31.0951 45.3639C31.9017 45.0088 31.8979 44.9796 31.5658 44.1663C30.3751 41.2502 31.9533 38.3083 35.0917 37.6944C36.3221 37.4537 37.5399 37.5568 38.4728 38.5064C38.8985 38.9395 39.1862 39.4439 38.9804 40.0793C38.7206 40.0679 38.6997 39.8741 38.6128 39.7494C37.933 38.7719 36.77 38.4226 35.5776 38.8436C34.3772 39.2676 33.6321 40.3832 33.8164 41.4993C33.8621 41.7767 33.9179 42.0586 34.019 42.3212C34.7415 44.1943 36.3476 44.6841 38.0793 43.5408C38.6023 43.1954 39.0781 42.7814 39.547 42.3698C40.5219 41.5137 41.5856 40.7733 42.7205 40.1204C42.8445 40.049 43.0026 40.0083 43.032 39.8231C42.9935 39.5927 42.7632 39.4861 42.6048 39.3326C40.6589 37.4478 40.6217 34.6776 41.7971 32.7821C42.7143 31.303 44.6388 30.567 46.3877 30.9811C47.0929 31.148 47.6752 31.485 47.9925 32.1368C47.8067 32.3373 47.6583 32.1988 47.517 32.1379C46.5846 31.737 45.618 31.6361 44.7817 32.2394C43.8913 32.8815 43.7866 33.8635 43.9636 34.8341C44.2484 36.3952 45.8732 37.784 47.5419 37.9766C47.9463 38.0232 48.1456 37.9324 48.2154 37.4877C48.9804 32.6038 52.5654 29.2987 57.7388 28.6511C58.8021 28.5181 59.8655 28.4768 60.9317 28.5353C61.4507 28.564 61.8814 28.4394 62.3066 28.1601C63.9904 27.054 65.7882 26.1205 67.8593 25.9493C72.1168 25.5975 76.1193 26.1494 79.1668 29.377C80.7905 31.0964 81.5349 33.2277 82.154 35.4018C82.2754 35.8285 82.3606 36.2647 82.4613 36.6967C82.6966 37.7061 83.3514 38.0896 84.4177 37.8418C85.8339 37.5129 87.355 35.7956 87.4683 34.3977C87.6102 32.6439 85.7537 31.3698 83.993 32.0064C83.7636 32.0893 83.5687 32.2833 83.287 32.2338C83.4332 31.5285 84.2436 30.9724 85.2929 30.8493C87.976 30.534 90.4319 32.5785 90.5068 35.1242C90.5498 36.5926 90.0755 37.855 89.1193 38.9853C88.9752 39.1556 88.7738 39.2923 88.7203 39.5215C88.7629 39.7294 88.9443 39.8135 89.1048 39.9062C90.4625 40.6908 91.6412 41.6848 92.8022 42.701C93.0678 42.9336 93.3431 43.1624 93.6421 43.3539C95.0168 44.2347 96.4876 44.0359 97.3094 42.8732C98.1321 41.7089 97.7954 40.015 96.561 39.2103C95.0988 38.2571 93.4342 38.6918 92.8096 39.9036C92.764 39.9921 92.711 40.083 92.5448 40.0993C92.336 39.7219 92.5081 39.3738 92.6788 39.0421C93.2486 37.9334 94.7493 37.366 96.2735 37.6683C99.5648 38.3209 101.104 41.2894 99.72 44.3206C99.5776 44.6323 99.4189 44.9374 99.2585 45.2648C99.9277 45.5939 100.567 45.9053 101.204 46.2219C105.465 48.3399 105.796 52.4816 104.023 55.6621C102.873 57.7257 101.018 59.0338 98.6762 59.7379C97.7058 60.0296 97.6799 60.066 97.8895 61.0271C98.3837 63.2918 99.5586 65.0411 102.029 65.7466C103.865 66.2714 105.64 65.6725 106.457 64.3156C107.149 63.1657 106.854 61.8058 105.756 61.0849C104.547 60.2913 103.091 60.4163 102.235 61.4109C102.016 61.6657 101.873 61.9783 101.67 62.3041C101.304 61.8428 101.533 61.4311 101.678 61.0597C102.315 59.4236 104.627 58.9078 106.349 59.9973C107.805 60.9196 108.452 62.6147 107.995 64.3106C107.4 66.5173 105.315 67.9913 102.799 68.1042C99.8184 68.238 97.3697 67.0431 95.0603 65.4768C93.0455 64.1102 91.5912 62.3265 90.7611 60.1052C90.699 59.939 90.6738 59.7243 90.466 59.6585C89.566 59.3733 88.661 59.1018 87.6572 58.7943C87.86 59.3572 88.2194 59.6441 88.6158 59.8739C90.2786 60.8378 91.3529 62.2511 91.9796 63.9485C92.722 65.9597 94.1578 67.327 96.1111 68.2872C97.9929 69.2123 99.7312 70.3157 100.786 72.1221C102.044 74.2767 102.302 76.4692 100.823 78.647C100.472 79.1637 99.9934 79.5682 99.3972 79.8343C99.1456 79.9466 98.8925 80.043 98.5643 79.847C98.862 79.4938 99.2235 79.2124 99.4538 78.8265C100.846 76.4913 99.8084 73.4296 97.1577 72.1017C96.4757 71.7599 95.7588 71.5004 95.0124 71.3154C93.2995 70.8908 91.5746 70.4967 90.0495 69.4144C89.9988 70.0141 90.2292 70.3737 90.6158 70.6868C91.1247 71.099 91.7467 71.3349 92.2958 71.6849C95.1537 73.5069 96.5572 76.1699 97.0119 79.2762C97.5719 83.1016 95.9092 86.1895 93.0657 88.7996C92.9055 88.9467 92.746 89.1287 92.3553 89.0867C92.5359 88.8213 92.6885 88.5981 92.8396 88.3742C93.7883 86.9706 94.572 85.4958 94.8999 83.8451C95.5766 80.4359 94.3375 77.7524 91.3926 75.7333C90.4541 75.0898 89.4295 74.5922 88.3691 74.1542C88.0855 74.0372 87.8574 73.9996 87.6394 74.2698C86.1552 76.1086 84.0972 76.7631 81.7417 76.8077C81.14 76.8191 80.5548 76.9502 79.9882 77.1351C78.924 77.4824 78.5345 78.0989 78.7043 79.1306C79.0323 81.125 80.8145 83.002 82.8802 83.4437C83.9207 83.666 84.936 83.5807 85.7075 82.7499C86.2534 82.1619 86.3037 81.4687 85.8727 80.8558C85.4122 80.2009 84.5987 79.8889 83.8704 80.0876C83.3657 80.2253 83.0445 80.7164 83.1098 81.2734C83.128 81.431 83.1892 81.5845 83.0711 81.8539C82.4696 81.4171 82.3345 80.8433 82.3404 80.2569C82.3585 78.4455 84.1847 76.9673 86.0996 77.1706C88.3087 77.4049 89.8562 78.4875 90.5821 80.4644C91.3813 82.6411 90.8884 84.6374 89.1746 86.2599C86.6585 88.6423 83.6268 88.887 80.3861 87.8822C78.4639 87.2861 76.9391 86.1359 75.6339 84.6995C75.0246 84.0286 74.6757 84.0597 74.2228 84.8485C73.6245 85.8902 73.6061 86.9737 74.1588 88.038C74.7395 89.1561 75.8643 89.2694 76.996 89.3209C77.8977 89.3618 78.7112 89.6313 79.4492 90.1059C80.8429 91.0024 81.0264 92.356 79.934 93.5887C78.9613 94.6865 77.6999 95.3283 76.2392 95.6239C73.8535 96.1071 71.6088 95.7359 69.5387 94.5202C68.6383 93.9912 67.996 93.245 67.7579 92.243C67.6863 91.9417 67.6001 91.6186 67.9435 91.2342C68.1861 91.9671 68.5306 92.5588 69.1099 92.989C71.0081 94.3983 73.1623 94.8215 75.5051 94.3979C76.3512 94.2449 77.0287 93.7769 77.5335 93.1081C78.072 92.3951 77.8974 91.739 77.0471 91.3921C76.1239 91.0155 75.1247 91.0429 74.1487 90.9957C73.4401 90.9614 72.742 90.8843 72.0614 90.7161C69.2228 90.0144 67.9779 87.2991 69.261 84.6491C69.6757 83.7927 70.3077 83.0822 70.948 82.3771C71.477 81.7946 72.0167 81.2188 72.387 80.5283C72.5374 80.2478 72.7366 79.972 72.6659 79.6205C72.3569 79.4921 72.1781 79.7183 71.9779 79.8386C70.5881 80.6724 69.2693 81.6017 67.9418 82.5198C66.2869 83.6645 65.2337 83.6707 63.5786 82.5188C62.3402 81.6568 61.1186 80.7737 59.8382 79.9664C59.5576 79.7897 59.2871 79.603 58.9093 79.5096C58.9264 80.2121 59.2572 80.7512 59.6168 81.2735C60.0727 81.9356 60.6577 82.5014 61.1931 83.1043C61.859 83.8543 62.3977 84.6587 62.5721 85.6557C62.8039 86.9811 62.0683 88.273 60.7426 88.7878C60.1055 89.0352 59.4194 89.1062 58.7639 89.2857C57.3274 89.6792 56.9548 90.6911 57.8205 91.8339C58.5053 92.7381 59.6864 93.0503 60.9773 92.6682C62.3832 92.2523 63.1111 91.4507 63.1118 90.2724C63.1123 89.8784 63.0366 89.4843 62.9945 89.0798C63.8578 89.262 64.4187 90.0733 64.4433 91.128C64.4814 92.7592 63.2402 94.3657 61.4208 95.0403C57.9857 96.3137 54.0617 93.7528 54.0985 90.2618C54.11 89.1905 54.6554 88.4837 55.8475 88.2679C56.825 88.091 57.645 87.6611 58.4656 87.1912C59.6677 86.5034 59.7604 85.6801 58.7403 84.7498C58.6038 84.6254 58.4602 84.5082 58.2652 84.4072C58.6379 84.9887 58.9629 85.5738 58.8069 86.2777C58.6594 86.9452 58.0322 87.4338 57.2846 87.4161C57.6263 86.7331 57.9905 86.0594 57.6915 85.2853C57.6478 85.172 57.6154 85.0543 57.5647 84.9441C57.0907 83.9173 56.7236 83.8676 56.0011 84.7337C53.9107 87.2402 51.1871 88.5471 47.7969 88.5394C44.7466 88.5325 42.2521 86.9622 41.2632 84.4772C40.1515 81.6836 41.4636 78.6209 44.1853 77.6569C45.997 77.0152 47.9173 77.4914 48.816 78.8329C49.372 79.6628 49.5136 80.5576 49.102 81.4859C49.0083 81.6973 48.8972 81.9406 48.5733 81.9308C48.4091 81.775 48.4691 81.5854 48.4615 81.4117C48.417 80.3797 47.5133 79.8776 46.5307 80.3414C45.8208 80.6765 45.3948 81.3212 45.4783 81.9335C45.5876 82.7342 46.2785 83.3921 47.1865 83.5122C48.68 83.7098 49.9845 83.2722 51.0894 82.3418C51.9856 81.5873 52.5935 80.6466 52.853 79.5224C53.0354 78.7328 52.8419 78.3233 52.0836 77.9381C51.0807 77.4287 49.9701 77.2919 48.8691 77.1959C46.8153 77.0169 45.235 76.1171 44.0402 74.5642C43.8294 74.2899 43.6361 74.0384 43.2084 74.2189C40.7478 75.2573 38.6131 76.6464 37.4533 79.0538C36.2385 81.5761 36.6681 84.005 37.9842 86.3698C38.2732 86.889 38.6024 87.3836 38.9814 87.8491C39.0677 87.9552 39.1817 88.0689 39.0773 88.2378C38.8081 88.3292 38.6491 88.1256 38.4694 88.0079C36.3378 86.6114 35.148 84.5999 34.7848 82.2644C34.154 78.2083 35.5299 74.7566 38.8256 72.033C39.3599 71.5914 39.9979 71.2958 40.6069 70.9607C40.7359 70.8898 40.8667 70.8154 40.9768 70.7219C41.1962 70.5357 41.5269 70.3219 41.3481 70.0305C41.1548 69.7152 40.8483 69.9945 40.6228 70.0945C39.3558 70.6559 38.0056 70.9614 36.6549 71.2648C34.6874 71.7066 33.0296 72.5365 32.0368 74.3147C31.0131 76.1479 31.3665 78.9603 33.2021 79.9807C33.2487 80.0067 33.2673 80.0777 33.3032 80.1343C33.0911 80.4207 32.8069 80.3222 32.548 80.2656C31.4783 80.0314 30.9198 79.2694 30.4982 78.4091C29.1499 75.6576 29.9159 72.4674 32.423 70.2482C33.3197 69.4545 34.3318 68.816 35.41 68.2752C37.3073 67.3235 38.7471 66.0204 39.5181 64.0638C40.1738 62.4002 41.3606 61.0792 42.899 60.0428C43.2712 59.792 43.6815 59.5505 43.8689 59.0576C43.3859 58.9521 43.0361 59.2524 42.6385 59.3113C41.4008 59.494 40.8374 60.2175 40.273 61.2634C38.0782 65.3316 34.503 67.7347 29.6762 68.2709C27.8464 68.4742 26.1025 68.0098 24.7461 66.612ZM63.0816 77.2379C63.9453 77.8677 64.9505 77.7569 65.9573 77.8131C67.1035 77.8772 68.0475 77.5923 68.9327 76.9499C70.9062 75.5182 72.7111 73.9193 74.3225 72.1308C75.5259 70.7948 76.429 69.2913 76.9806 67.6123C77.0817 67.305 77.2685 66.9903 77.1218 66.5605C76.1341 67.3598 75.5543 68.3566 74.9782 69.5111C74.7885 68.3198 75.2999 66.9987 76.2158 66.0405C76.7309 65.5016 77.2414 64.9587 77.7398 64.4063C77.8955 64.2334 78.0741 64.0475 77.9998 63.6338C77.0782 64.2234 76.3566 64.9832 75.254 65.3236C75.337 64.977 75.536 64.8494 75.686 64.6905C76.1552 64.1938 76.6262 63.6985 77.0909 63.1981C77.4799 62.7792 77.6351 62.3406 77.4222 61.7618C77.0315 60.6995 76.871 59.6083 77.297 58.5052C77.3334 58.4111 77.3878 58.2694 77.2058 58.1718C76.807 58.5659 76.442 58.9651 76.6662 59.5611C76.0357 59.802 75.9039 60.6722 75.0675 60.5526C75.0212 60.5459 74.9183 60.6548 74.9045 60.7215C74.8246 61.1072 74.5711 61.0464 74.2731 60.9853C73.8113 60.8902 73.3382 60.8271 73.1641 61.4184C72.5279 61.2324 72.0434 60.7373 71.3802 60.8423C71.2301 61.0674 71.5363 61.1988 71.4107 61.416C71.001 61.4658 70.7111 61.1894 70.3992 61.0085C69.3421 60.3955 69.3482 60.3864 68.8038 61.3245C68.2509 61.1569 68.5319 60.4585 68.0392 60.2252C67.3545 60.7785 67.57 61.6463 67.2372 62.3419C66.9353 62.093 66.9419 61.8225 66.9382 61.5664C66.9281 60.8603 66.8891 60.1511 66.943 59.4484C67.0535 58.0039 67.549 56.697 68.6198 55.6145C69.2585 54.9689 70.0291 54.5074 70.8464 54.1026C72.3231 53.3713 73.8328 52.7051 75.3621 52.0784C75.6522 51.9595 75.8302 51.7677 75.7195 51.4641C75.5919 51.1143 75.291 51.2668 75.0733 51.3411C74.4498 51.554 73.8085 51.5317 73.17 51.5024C71.9909 51.4484 71.3471 50.492 71.7632 49.451C71.9882 48.8876 72.4534 48.5474 72.9713 48.2445C73.545 47.9089 73.5588 47.4215 73.0087 47.032C72.8015 46.8855 72.5599 46.8152 72.3 46.7726C70.6066 46.495 68.9679 46.7249 67.4068 47.3406C66.1926 47.8195 65.0173 47.8848 63.8029 47.4166C63.5659 47.3253 63.3181 47.2599 63.0757 47.1812C61.2355 46.5848 59.3664 46.4506 57.4615 46.8627C57.0737 46.9465 56.7236 47.0863 56.5147 47.4255C56.3154 47.7494 56.2826 48.0244 56.7545 48.1856C57.1345 48.3155 57.5055 48.4781 57.8605 48.6608C58.4921 48.9859 58.8685 49.4768 58.7864 50.1853C58.7062 50.8755 58.2166 51.3069 57.4024 51.5155C56.046 51.8632 54.8348 51.2845 53.5979 50.9611C53.2261 50.8639 53.0598 50.3686 53.3065 49.9751C53.5278 49.6218 53.8821 49.6956 54.2077 49.8706C54.3557 49.9501 54.486 50.0592 54.634 50.139C54.9901 50.3313 55.3652 50.4878 55.7862 50.4363C56.0505 50.404 56.2767 50.2721 56.3789 50.0257C56.4682 49.8109 56.3631 49.6409 56.1927 49.4899C55.5781 48.9453 53.9615 48.8686 53.2941 49.3577C52.7328 49.7691 52.5727 51.1159 53.0197 51.8455C53.7592 51.5774 54.5177 51.6022 55.2602 51.8523C57.4788 52.6 59.6162 53.5179 61.6485 54.6446C62.6684 55.2102 63.4611 55.9947 63.9675 57.0077C64.7811 58.6351 64.8391 60.3503 64.5729 62.0959C64.5547 62.2148 64.5354 62.3413 64.3308 62.3751C63.9904 61.7075 64.1956 60.8124 63.4626 60.2719C62.9708 60.5358 63.2512 61.2155 62.7009 61.4166C62.6527 61.363 62.5982 61.3257 62.5769 61.2758C62.2434 60.4924 62.2482 60.4976 61.4687 60.9649C61.0863 61.1941 60.7243 61.4886 60.239 61.4789C60.1413 61.1977 60.5304 61.007 60.268 60.7414C59.567 60.8118 59.0053 61.2647 58.3744 61.4499C58.1622 61.3144 58.2689 60.9681 58.0537 60.9906C57.3675 61.0625 56.8528 60.7396 56.2542 60.5288C55.6147 60.3034 55.6278 59.5946 55.0182 59.4796C55.0759 58.5426 54.1991 58.0848 53.8 57.382C53.692 57.1919 53.5813 56.9356 53.284 56.9311C53.1588 57.0107 53.161 57.1161 53.1604 57.2151C53.1535 58.3035 53.2211 59.3938 53.0488 60.4775C53.0225 60.6435 53.1174 60.7845 53.1814 60.9354C53.8146 62.4305 54.8758 63.6312 56.0818 64.7361C56.2396 64.8808 56.4844 64.9819 56.4532 65.2897C56.3687 65.2897 56.2791 65.3129 56.2122 65.2861C55.1792 64.8738 54.3888 64.1382 53.4819 63.3876C53.6918 64.16 54.1485 64.6651 54.603 65.1684C55.1296 65.7513 55.7134 66.2926 56.1218 66.962C56.5683 67.6943 56.8379 68.4696 56.66 69.3475C56.1121 68.309 55.507 67.3344 54.5121 66.5652C54.4039 66.8475 54.4457 67.0214 54.4976 67.198C54.7957 68.2115 55.1702 69.1967 55.7397 70.1057C57.5614 73.014 60.1967 75.1804 63.0816 77.2379ZM81.3743 47.9532C81.3097 47.9081 81.2452 47.8631 81.1306 47.7833C82.262 49.4104 83.9871 50.3288 85.6868 51.006C87.215 51.615 89.0394 51.5765 90.9032 51.3883C90.3549 52.1116 89.5157 52.1097 88.9787 52.5851C89.0753 52.687 89.1188 52.7647 89.1868 52.7997C90.9647 53.7138 92.8584 54.1097 94.8665 53.801C95.6773 53.6764 96.4019 53.2962 96.9091 52.6462C97.4789 51.9163 97.3547 51.1112 96.5793 50.584C95.7007 49.9868 94.6799 49.8725 93.6453 49.9617C92.6279 50.0494 91.6131 50.1962 90.6075 50.37C87.1406 50.9695 84.1016 50.1289 81.3743 47.9532ZM79.5925 31.3807C78.5108 29.6672 76.5338 28.1163 75.3784 28.0888C75.6966 28.2765 76.0042 28.4527 76.3056 28.6378C76.4923 28.7526 76.5587 28.9229 76.4406 29.1066C76.3239 29.288 76.1496 29.2212 75.9882 29.1489C75.7629 29.0482 75.5367 28.9493 75.311 28.8496C77.3068 30.0835 78.1919 31.0583 78.0075 31.9416C77.9663 31.9466 77.9205 31.9649 77.885 31.9539C77.805 31.9291 77.7173 31.9042 77.6552 31.8544C75.7444 30.3214 73.461 30.1367 71.1205 30.3408C68.4364 30.5751 65.7998 30.4006 63.1666 29.8935C61.2544 29.5251 59.3318 29.4812 57.4326 30.063C59.6737 29.6414 61.8279 30.1227 63.9721 30.6191C66.3924 31.1795 68.8166 31.495 71.3223 31.2307C72.8378 31.0709 74.3435 31.2289 75.755 31.8939C77.6046 32.7655 78.9311 34.1082 79.8937 35.8075C80.0261 36.0411 80.0948 36.3354 80.4898 36.4939C80.9066 34.6686 80.5305 33.0279 79.5925 31.3807ZM39.4543 54.125C40.4583 53.9763 41.4126 53.6778 42.2548 53.1427C42.822 52.7822 43.4156 52.5992 44.0899 52.5252C45.3558 52.3867 46.5875 51.3086 46.8786 50.0208C46.5597 50.6749 46.143 51.0513 45.706 51.399C44.4558 52.3937 43.0758 52.7972 41.4967 52.1328C40.8535 51.8622 40.2123 51.587 39.5767 51.3006C38.8066 50.9537 38.0616 50.5516 37.2258 50.3521C36.2018 50.1078 35.0544 50.5881 34.6847 51.4106C34.3315 52.1963 34.6928 52.9602 35.7036 53.5685C36.8309 54.247 38.0681 54.3102 39.4543 54.125ZM33.2726 54.8597C32.2427 53.4073 32.3929 51.9119 33.2058 50.3914C33.0171 50.3539 32.9274 50.3068 32.8597 50.3269C30.4343 51.0412 29.4384 53.0111 30.4144 54.9197C31.5495 57.1392 34.585 58.5141 37.2797 58.0251C37.6661 57.955 38.1195 58.0573 38.5008 57.6903C36.4876 57.1778 34.5971 56.5599 33.2726 54.8597ZM93.1564 57.7991C94.0805 58.0121 95.0246 58.0324 95.9591 57.9538C97.9165 57.7898 99.5989 57.0687 100.782 55.5366C101.436 54.6905 101.859 53.7523 101.573 52.6544C101.257 51.4392 99.5621 50.1818 98.3824 50.3035C98.2931 50.4873 98.4351 50.6075 98.5267 50.7352C99.4645 52.0423 99.3709 53.348 98.507 54.6413C97.5375 56.093 96.0381 56.8239 94.3624 57.2955C93.9551 57.4102 93.5302 57.4683 93.1149 57.5586C92.9352 57.5978 92.897 57.6719 93.1564 57.7991ZM88.071 81.6333C87.9838 81.3266 87.8967 81.0198 87.8096 80.7133C88.111 81.9848 87.821 83.0787 86.7816 83.9541C85.5012 85.0322 83.9616 85.1902 82.3875 84.8438C79.0803 84.1156 76.6351 80.7288 77.0922 77.5587C77.3692 75.6382 78.295 74.0892 80.1892 73.159C81.0918 72.7156 82.0595 72.6541 83.0501 72.6203C84.4893 72.5712 85.6294 71.6427 85.7421 70.4941C85.169 71.6683 83.9168 72.2627 82.394 72.0589C80.5924 71.8179 79.1532 72.4342 78.0635 73.751C76.5608 75.5667 76.3296 77.6751 76.7944 79.8427C77.4621 82.9567 80.7609 85.8459 84.5478 85.3429C86.5624 85.0752 88.1107 83.5462 88.071 81.6333ZM53.8382 74.0949C52.6508 72.758 51.1776 72.0648 49.2868 72.2003C47.8652 72.3024 46.6285 71.9778 45.9957 70.5832C46.3267 72.0451 47.315 72.7519 48.9963 72.7567C51.1492 72.763 52.8616 73.5317 53.9365 75.3498C56.1775 79.1395 53.2957 84.0128 49.2784 84.8945C47.6947 85.242 46.2054 85.0142 44.9531 83.9772C43.9047 83.109 43.7459 81.9727 44.031 80.7365C43.6364 81.3873 43.5532 82.0653 43.7635 82.7738C44.2844 84.5283 46.3182 85.6794 48.4695 85.44C54.001 84.8244 57.0334 78.5173 53.8382 74.0949ZM88.4361 40.5948C87.4174 39.9425 86.2789 39.5386 85.1235 39.1686C82.5353 38.3392 79.85 38.0055 77.1424 37.8358C75.1886 37.7132 73.2562 37.8483 71.433 38.6372C70.7189 38.9464 70.1445 39.3339 69.859 39.7807C71.9373 38.5852 74.202 38.2702 76.5409 38.3821C78.4361 38.4727 80.3201 38.7177 82.1791 39.0866C85.2904 39.7039 88.2407 40.6464 90.5254 42.8917C90.6897 43.053 90.821 43.2771 91.1386 43.3612C90.4696 42.2304 89.6374 41.3119 88.4361 40.5948ZM50.5009 59.1864C50.0283 60.6488 49.1808 61.8798 47.9682 62.8948C46.9146 63.7766 45.8232 64.6213 44.8887 65.6232C44.1883 66.3737 43.6562 67.2184 43.3436 68.1752C43.0512 69.0707 43.0787 69.9789 43.2204 71.0005C43.5003 70.7276 43.4404 70.498 43.4469 70.2931C43.4636 69.7673 43.5473 69.2513 43.6877 68.7446C44.1115 67.2148 45.1606 66.0902 46.3735 65.0715C47.5523 64.0812 48.8218 63.1802 49.812 62.0028C51.2974 60.2366 51.5724 57.9273 50.4387 56.2006C50.7084 57.2218 50.7885 58.154 50.5009 59.1864ZM51.0867 46.7896C50.7219 47.6074 50.4247 48.4466 50.1849 49.3045C49.4627 51.888 47.8288 53.7236 45.2036 54.7718C42.0387 56.0353 38.8097 56.3803 35.3781 55.4099C35.6891 55.6869 35.9864 55.7801 36.275 55.8798C38.5884 56.6794 40.9364 56.5431 43.267 56.0149C45.4683 55.5162 47.4214 54.5966 48.8591 52.8426C50.3739 50.9949 50.5299 48.711 51.2294 46.6007C51.2128 46.6084 51.1905 46.6118 51.1805 46.6244C51.155 46.6563 51.1351 46.6922 51.0867 46.7896ZM85.09 65.1795C85.2979 65.353 85.506 65.5263 85.7135 65.7001C86.9061 66.6991 87.8343 67.8573 88.1288 69.3768C88.2341 69.919 88.2792 70.4714 88.374 71.1869C88.6068 70.481 88.6519 69.9449 88.5471 69.38C88.1478 67.2272 86.8299 65.6394 85.0694 64.3349C84.1301 63.6389 83.1252 63.0223 82.1824 62.3302C81.0426 61.4934 80.714 60.3971 81.1676 59.1006C81.3165 58.6752 81.4829 58.255 81.6958 57.6865C81.2049 58.2428 80.8243 58.675 80.5857 59.1978C80.0453 60.3828 80.3927 61.3844 81.2721 62.3015C82.3607 63.4369 83.7608 64.195 85.09 65.1795ZM79.0575 41.4399C79.651 41.7633 80.2265 42.1112 80.7081 42.5777C82.374 44.1914 83.6135 46.0497 84.334 48.2073C84.4142 48.4468 84.419 48.7435 84.7464 48.8984C84.9156 44.0335 78.8716 39.0751 74.0134 40.2338C75.873 40.3021 77.4924 40.6085 79.0575 41.4399ZM50.6195 40.4486C51.639 39.5598 52.6225 38.6302 53.6856 37.7907C55.791 36.1281 58.2376 35.4935 60.9646 35.7885C61.9362 35.8937 62.8311 36.237 63.9104 36.6194C63.3903 36.171 63.0123 35.8521 62.5239 35.6766C60.2067 34.8442 57.9452 34.9477 55.6998 35.956C53.0645 37.1395 51.5022 39.3912 49.6213 41.3292C49.9322 41.0552 50.2432 40.7813 50.6195 40.4486ZM88.5066 55.8994C91.2605 56.411 93.9823 56.5896 96.5594 55.2531C91.1835 56.6883 86.5092 55.2757 82.2517 52.1129C82.297 52.2218 82.3532 52.3057 82.4187 52.3825C83.9793 54.2096 86.0228 55.3022 88.5066 55.8994ZM89.8589 47.979C91.1966 48.1983 92.4943 47.9741 93.7866 47.6717C93.0601 47.6279 92.3342 47.656 91.6114 47.6227C89.5242 47.526 87.8861 46.7894 87.1741 44.7707C87.0802 44.5044 86.9411 44.25 86.8003 44.0013C86.5039 43.4776 86.1456 42.9977 85.625 42.6379C86.2911 43.4848 86.5479 44.4909 86.9039 45.4564C87.3864 46.7644 88.2387 47.6938 89.8589 47.979ZM76.8506 50.1059C76.3805 49.9886 76.0215 49.721 75.6898 49.393C75.1606 48.8704 74.437 48.9098 73.9282 49.4627C73.5829 49.8378 73.6883 50.2041 74.2011 50.3182C74.5777 50.402 74.9664 50.3635 75.3414 50.2754C75.8545 50.155 76.255 50.3713 76.3313 50.7993C76.4658 51.5562 76.8796 51.6532 77.5441 51.4605C77.6812 51.4206 77.8403 51.4491 77.9894 51.4459C78.1964 51.4411 78.4566 51.509 78.5388 51.2593C78.6156 51.0262 78.4621 50.8343 78.2805 50.6813C77.8998 50.3606 77.4149 50.2647 76.8506 50.1059ZM96.5807 70.0866C95.8596 69.7227 95.0834 69.4686 94.2925 69.3318C91.905 68.9187 90.4618 67.5363 89.6178 65.475C89.4246 65.003 89.1783 64.5505 88.9565 64.089C89.0553 64.7187 89.2697 65.3018 89.4579 65.8923C90.0841 67.856 91.436 69.0815 93.5557 69.5725C94.735 69.8457 95.9189 70.1261 96.9944 70.6871C97.4894 70.9453 97.9675 71.2324 98.4532 71.5063C98.0112 70.8521 97.3488 70.4774 96.5807 70.0866ZM88.8801 43.804C89.7395 45.3877 91.082 46.2341 92.9881 46.3871C93.9662 46.4656 94.9462 46.4274 95.926 46.5517C96.8944 46.6746 97.8464 46.8544 98.7981 47.0531C97.1515 46.3238 95.392 46.0728 93.6083 45.9402C91.9029 45.8134 90.4713 45.2195 89.4425 43.8799C89.1706 43.526 88.905 43.1628 88.4113 42.7822C88.595 43.1864 88.7173 43.4555 88.8801 43.804ZM56.1275 40.9355C55.1168 41.2354 54.2149 41.7121 53.4215 42.3651C56.9098 40.3087 62.3007 40.2569 64.9779 43.3816C64.4579 42.3793 63.655 41.6486 62.5913 41.1507C60.5049 40.1742 58.3744 40.331 56.1275 40.9355ZM59.5066 38.0625C58.4291 38.1468 57.4339 38.4522 56.5265 38.9955C57.2131 38.9351 57.878 38.7947 58.5513 38.7244C59.1539 38.6616 59.2 38.7303 59.2539 39.3092C60.158 39.353 61.0343 39.5662 61.9206 39.7572C61.3765 39.2069 60.6778 38.9944 59.7658 38.9754C60.2816 38.443 60.7426 38.6489 61.1774 38.6704C61.6475 38.6937 62.0735 38.9828 62.6016 38.9094C62.0348 38.2621 61.2273 38.0407 59.5066 38.0625ZM41.4493 67.3915C42.1133 66.2308 42.3196 65.714 42.317 65.1989C42.2818 65.2375 42.2478 65.2634 42.2294 65.2969C42.1605 65.4219 42.0965 65.5495 42.0311 65.6763C41.0417 67.5939 39.6805 69.0879 37.285 69.4247C36.9491 69.472 36.6112 69.555 36.2964 69.674C35.7069 69.8966 35.1335 70.1579 34.5535 70.4029C35.6722 70.0661 36.8194 69.9197 37.9386 69.6801C39.4074 69.3657 40.5672 68.6513 41.4493 67.3915ZM63.1295 34.0857C63.9752 34.374 64.8418 34.3906 65.7264 34.2753C64.0766 34.1259 62.6221 33.4637 61.1385 32.8497C59.3466 32.1081 57.4948 32.1778 55.6488 32.6948C57.1813 32.5004 58.7136 32.4469 60.1965 32.9436C61.16 33.2663 62.0898 33.6786 63.1295 34.0857ZM41.243 45.0348C40.507 45.9715 39.5115 46.3355 38.291 46.3167C37.4142 46.3031 36.5358 46.3962 35.658 46.4418C35.6607 46.4998 35.6634 46.5577 35.6661 46.6156C36.5572 46.6156 37.4505 46.5778 38.3389 46.6235C40.169 46.7177 41.3872 45.8875 42.1992 44.4247C42.7403 43.4497 43.1726 42.4125 44.0991 41.6698C43.425 41.9915 42.995 42.5238 42.6065 43.1021C42.1837 43.7312 41.7367 44.3459 41.243 45.0348ZM59.605 57.8454C59.93 57.8123 60.2855 57.957 60.5771 57.709C60.0996 56.7167 57.8939 56.2049 56.7663 56.8646C57.5165 57.6325 58.5017 57.7426 59.605 57.8454ZM50.5991 70.0669C51.3975 69.8408 52.1721 70.1225 53.0257 70.221C52.6569 69.6998 52.1808 69.4897 51.6406 69.4287C50.5505 69.3056 49.472 69.4258 48.4043 69.6431C48.2016 69.6843 47.9363 69.7044 47.933 69.9639C47.9298 70.2004 48.1837 70.2639 48.3682 70.3564C48.5698 70.4576 48.7788 70.4258 48.9916 70.3802C49.4893 70.2739 49.9892 70.1758 50.5991 70.0669ZM73.0063 56.5948C72.1935 56.7461 71.4374 56.9867 70.9196 57.704C72.1857 58.0836 74.3071 57.5903 74.6911 56.8552C74.2287 56.4463 73.6555 56.6087 73.0063 56.5948ZM80.0762 69.191C79.5423 69.299 79.0483 69.4625 78.7177 70.0206C79.2882 69.968 79.7322 69.8013 80.2094 69.8309C80.6818 69.8601 81.1344 69.9726 81.5948 70.0555C81.992 70.1271 82.3943 70.1838 82.797 70.2126C83.051 70.2307 83.3719 70.2139 83.4255 69.9197C83.484 69.5972 83.1403 69.5369 82.9101 69.4891C82.0148 69.304 81.1161 69.1176 80.0762 69.191ZM54.2352 54.6237C54.7162 54.7689 55.1979 54.7832 55.6713 54.6059C55.9178 54.5136 56.1135 54.36 56.1514 54.0889C56.1918 53.7997 55.9913 53.6448 55.7657 53.5191C55.3749 53.3013 54.96 53.1551 54.4933 53.2022C54.0781 53.2441 53.6616 53.3164 53.5499 53.7705C53.4399 54.2168 53.7823 54.4173 54.2352 54.6237ZM75.3559 54.1827C75.454 54.7852 75.9824 54.8634 76.4572 54.9047C76.9683 54.9495 77.4888 54.8474 77.8358 54.4284C78.0901 54.121 77.9211 53.8619 77.6483 53.6509C77.0563 53.1928 75.7712 53.4437 75.3559 54.1827ZM69.0153 36.3669C71.1452 35.1471 73.4574 34.9839 75.8606 35.3488C72.7861 34.0713 68.8695 35.4082 68.2284 36.8198C68.4637 36.6829 68.699 36.5457 69.0153 36.3669ZM78.7023 58.0045C78.2528 59.2798 78.3281 60.0162 79.0211 60.6027C78.7103 58.654 79.5205 57.0829 80.7143 55.6265C79.8909 56.2807 79.1828 56.9998 78.7023 58.0045ZM98.0349 65.0693C98.2681 65.2271 98.5009 65.3846 98.7341 65.5421C97.5876 64.1731 96.5356 62.7334 94.9369 61.7923C95.8285 62.9669 96.7865 64.0839 98.0349 65.0693ZM39.5393 48.0349H37.479C40.0059 48.7536 41.6758 48.5146 42.2691 47.1948C41.4203 47.6885 40.5767 47.9864 39.5393 48.0349ZM68.9471 42.8459C68.7189 43.0019 68.4336 43.0978 68.1944 43.4893C69.761 42.8162 71.2623 42.5706 72.8251 42.6293C71.5249 42.1873 70.249 42.0431 68.9471 42.8459ZM36.3499 45.5045C36.9977 45.3717 37.664 45.301 38.2631 44.9964C36.3848 45.4545 34.3866 45.3258 32.5784 46.1288C33.7998 45.927 35.0213 45.725 36.3499 45.5045ZM45.568 39.7757C44.2675 40.1044 43.6411 40.413 43.1974 40.9476C44.5008 40.2766 45.8954 39.9362 47.3656 39.7652C46.8042 39.7652 46.2424 39.7652 45.568 39.7757ZM57.5339 59.2301C57.4037 59.2268 57.2687 59.0774 57.139 59.2369C57.8525 59.8492 59.6559 59.9236 60.5824 59.2771C59.5073 59.3167 58.5612 59.4181 57.5339 59.2301ZM72.9279 59.6956C73.4267 59.6631 73.94 59.6787 74.506 59.2149C73.2784 59.3806 72.2163 59.3273 71.054 59.308C71.6751 59.6019 72.2289 59.7092 72.9279 59.6956ZM58.6114 93.7003C58.1346 93.6674 57.7 93.4961 57.2766 93.3098C56.8776 93.1342 56.5408 92.8606 56.2178 92.5741C57.2924 93.8918 58.9724 94.3097 60.8234 93.6986C60.0504 93.803 59.3806 93.7887 58.6114 93.7003ZM35.4952 63.1145C34.9831 63.6872 34.471 64.2599 33.9589 64.8326C34.9207 64.286 35.5888 63.4959 36.2887 62.5731C35.8861 62.6812 35.7537 62.906 35.4952 63.1145ZM94.6134 76.4565C94.6175 76.5648 94.7677 76.6721 94.6201 76.781C94.3852 76.792 94.3445 76.4641 94.0012 76.5312C94.3129 77.1957 94.8137 77.7109 95.2573 78.2699C95.0375 77.6466 95.0181 76.9693 94.6134 76.4565ZM55.2797 45.4086C55.3486 45.3663 55.4176 45.3242 55.4866 45.2819C54.8433 45.4442 54.32 45.7534 54.0055 46.3118C54.3468 45.9508 54.785 45.7042 55.2797 45.4086ZM51.8681 55.8892C51.7738 55.454 51.7794 54.9965 51.5324 54.5946C51.7038 55.143 51.7122 55.7216 51.9103 56.2662C51.902 56.1681 51.8939 56.0701 51.8681 55.8892ZM75.7148 33.4232C75.4818 33.3357 75.2614 33.1758 74.8973 33.2891C75.2959 33.5311 75.6581 33.5931 76.0413 33.6151C75.9557 33.563 75.8702 33.5112 75.7148 33.4232Z" fill="#024259"/>
<path d="M67.6534 71.1915C67.0635 71.0174 66.5436 71.2714 66.0152 71.237C64.8024 71.1582 63.6076 71.1496 62.408 71.4454C61.8856 71.5741 61.2679 71.5962 60.6365 71.1565C61.8046 70.6019 62.6205 69.7024 63.7445 69.2095C64.1913 69.0136 64.6326 69.0962 65.0432 69.2791C65.5453 69.5027 66.0256 69.5113 66.5187 69.2861C67.1848 68.9821 67.7849 69.1129 68.387 69.4799C69.2436 70.002 69.995 70.6655 71.1048 71.16C69.852 71.736 68.7763 71.366 67.6534 71.1915Z" fill="#024259"/>
<path d="M62.656 66.0008C62.4599 64.9063 62.8218 64.2518 63.7501 64.0667C63.5796 64.3967 63.4189 64.6837 63.2838 64.981C63.2199 65.1215 63.1329 65.295 63.3206 65.4192C63.478 65.5233 63.6118 65.4211 63.7202 65.3283C64.1132 64.9925 64.4792 65.1514 64.8169 65.3929C65.5263 65.9 66.1773 65.9406 66.8818 65.3444C67.3499 64.9483 67.6789 65.0534 68.3314 65.659C68.4856 65.0786 68.2003 64.6433 67.8673 64.2454C68.0709 64.0383 68.2195 64.1505 68.3536 64.2364C69.3818 64.8943 69.3013 66.4691 68.1422 66.8686C67.2891 67.1628 66.7598 67.5888 66.5455 68.4064C66.4588 68.737 66.173 68.9008 65.8279 68.9148C65.4673 68.9293 65.1816 68.7335 65.1065 68.4192C64.907 67.5847 64.4087 67.0951 63.5115 66.9044C63.0771 66.812 62.8218 66.45 62.656 66.0008Z" fill="#024259"/>
<path d="M69.08 73.203C67.4214 74.3912 62.8006 74.164 61.7473 72.3864C62.1943 72.1697 62.609 71.908 63.1508 72.115C63.5021 72.2491 63.8508 72.2692 64.2108 72.1432C64.5805 72.0138 64.974 72.1288 65.3316 72.0925C66.4648 71.9769 67.5931 72.4595 68.7277 72.0521C69.1401 71.904 69.5391 72.1795 69.9529 72.3363C69.8148 72.7919 69.4202 72.9439 69.08 73.203Z" fill="#024259"/>
<path d="M122.368 65.8963C121.52 65.8963 120.72 65.7763 119.968 65.5362C119.216 65.2962 118.528 64.9362 117.904 64.4562C117.28 63.9762 116.728 63.3842 116.248 62.6802L117.544 61.2402C118.296 62.3122 119.064 63.0642 119.848 63.4962C120.648 63.9282 121.544 64.1442 122.536 64.1442C123.256 64.1442 123.912 64.0242 124.504 63.7842C125.096 63.5442 125.56 63.2082 125.896 62.7762C126.232 62.3442 126.4 61.8482 126.4 61.2882C126.4 60.9202 126.336 60.5922 126.208 60.3042C126.096 60.0162 125.92 59.7602 125.68 59.5362C125.44 59.3122 125.144 59.1122 124.792 58.9362C124.44 58.7602 124.032 58.6002 123.568 58.4562C123.12 58.3122 122.616 58.1682 122.056 58.0242C121.24 57.8322 120.52 57.6082 119.896 57.3522C119.288 57.0802 118.768 56.7522 118.336 56.3682C117.92 55.9842 117.6 55.5442 117.376 55.0482C117.168 54.5362 117.064 53.9362 117.064 53.2482C117.064 52.5922 117.2 51.9842 117.472 51.4242C117.76 50.8642 118.152 50.3842 118.648 49.9842C119.144 49.5682 119.728 49.2482 120.4 49.0242C121.072 48.8002 121.792 48.6882 122.56 48.6882C123.424 48.6882 124.192 48.8082 124.864 49.0482C125.552 49.2722 126.16 49.6082 126.688 50.0562C127.216 50.5042 127.672 51.0402 128.056 51.6642L126.736 52.9602C126.4 52.4322 126.016 51.9762 125.584 51.5922C125.168 51.2082 124.704 50.9202 124.192 50.7282C123.696 50.5202 123.144 50.4162 122.536 50.4162C121.832 50.4162 121.208 50.5362 120.664 50.7762C120.136 51.0162 119.72 51.3522 119.416 51.7842C119.112 52.2002 118.96 52.6802 118.96 53.2242C118.96 53.6242 119.032 53.9842 119.176 54.3042C119.32 54.6082 119.544 54.8802 119.848 55.1202C120.168 55.3442 120.576 55.5522 121.072 55.7442C121.584 55.9202 122.192 56.0882 122.896 56.2482C123.728 56.4402 124.472 56.6722 125.128 56.9442C125.8 57.2162 126.368 57.5442 126.832 57.9282C127.312 58.2962 127.672 58.7282 127.912 59.2242C128.168 59.7202 128.296 60.2882 128.296 60.9282C128.296 61.9202 128.048 62.7922 127.552 63.5442C127.056 64.2802 126.36 64.8562 125.464 65.2722C124.584 65.6883 123.552 65.8963 122.368 65.8963ZM136.898 65.8963C135.65 65.8963 134.538 65.6163 133.562 65.0562C132.602 64.4962 131.842 63.7202 131.282 62.7282C130.738 61.7362 130.466 60.6082 130.466 59.3442C130.466 58.0962 130.738 56.9842 131.282 56.0082C131.842 55.0322 132.602 54.2642 133.562 53.7042C134.538 53.1442 135.65 52.8642 136.898 52.8642C138.13 52.8642 139.226 53.1442 140.186 53.7042C141.162 54.2642 141.922 55.0322 142.466 56.0082C143.026 56.9842 143.306 58.0962 143.306 59.3442C143.306 60.6082 143.026 61.7362 142.466 62.7282C141.922 63.7202 141.162 64.4962 140.186 65.0562C139.226 65.6163 138.13 65.8963 136.898 65.8963ZM136.898 64.1922C137.778 64.1922 138.562 63.9842 139.25 63.5682C139.938 63.1362 140.474 62.5602 140.858 61.8402C141.242 61.1042 141.434 60.2722 141.434 59.3442C141.434 58.4162 141.242 57.5922 140.858 56.8722C140.474 56.1522 139.938 55.5922 139.25 55.1922C138.562 54.7762 137.778 54.5682 136.898 54.5682C136.018 54.5682 135.226 54.7762 134.522 55.1922C133.834 55.5922 133.29 56.1602 132.89 56.8962C132.506 57.6162 132.322 58.4322 132.338 59.3442C132.322 60.2722 132.506 61.1042 132.89 61.8402C133.29 62.5602 133.834 63.1362 134.522 63.5682C135.226 63.9842 136.018 64.1922 136.898 64.1922ZM151.212 65.8963C150.028 65.8963 148.972 65.6163 148.044 65.0562C147.116 64.4802 146.38 63.7042 145.836 62.7282C145.308 61.7362 145.044 60.6162 145.044 59.3682C145.044 58.1202 145.308 57.0082 145.836 56.0322C146.38 55.0402 147.116 54.2642 148.044 53.7042C148.972 53.1442 150.036 52.8642 151.236 52.8642C152.308 52.8642 153.284 53.0802 154.164 53.5122C155.044 53.9282 155.748 54.5122 156.276 55.2642L155.22 56.5602C154.916 56.1602 154.548 55.8082 154.116 55.5042C153.7 55.2002 153.244 54.9682 152.748 54.8082C152.268 54.6322 151.788 54.5442 151.308 54.5442C150.46 54.5442 149.7 54.7602 149.028 55.1922C148.356 55.6082 147.82 56.1762 147.42 56.8962C147.036 57.6162 146.844 58.4402 146.844 59.3682C146.844 60.2962 147.036 61.1282 147.42 61.8642C147.82 62.5842 148.356 63.1522 149.028 63.5682C149.7 63.9842 150.452 64.1922 151.284 64.1922C151.764 64.1922 152.236 64.1202 152.7 63.9762C153.164 63.8162 153.604 63.5922 154.02 63.3042C154.436 63.0162 154.82 62.6562 155.172 62.2242L156.228 63.5202C155.684 64.2402 154.956 64.8162 154.044 65.2482C153.132 65.6803 152.188 65.8963 151.212 65.8963ZM159.045 65.6562V53.1282H160.845V65.6562H159.045ZM159.933 50.4162C159.485 50.4162 159.141 50.3042 158.901 50.0802C158.677 49.8402 158.565 49.5202 158.565 49.1202C158.565 48.7202 158.685 48.4002 158.925 48.1602C159.165 47.9202 159.501 47.8002 159.933 47.8002C160.365 47.8002 160.701 47.9202 160.941 48.1602C161.181 48.3842 161.301 48.7042 161.301 49.1202C161.301 49.5042 161.181 49.8162 160.941 50.0562C160.701 50.2962 160.365 50.4162 159.933 50.4162ZM170.295 65.8963C169.047 65.8963 167.935 65.6243 166.959 65.0802C165.999 64.5362 165.247 63.7762 164.703 62.8002C164.159 61.8242 163.887 60.7042 163.887 59.4402C163.887 58.4642 164.039 57.5842 164.343 56.8002C164.647 56.0002 165.071 55.3042 165.615 54.7122C166.175 54.1202 166.839 53.6642 167.607 53.3442C168.375 53.0082 169.207 52.8402 170.103 52.8402C170.951 52.8402 171.719 52.9922 172.407 53.2962C173.111 53.6002 173.711 54.0242 174.207 54.5682C174.719 55.0962 175.103 55.7282 175.359 56.4642C175.615 57.2002 175.727 58.0082 175.695 58.8882L175.671 59.7282H165.231L164.967 58.2162H174.303L173.871 58.6242V58.0482C173.839 57.4722 173.671 56.9202 173.367 56.3922C173.063 55.8482 172.631 55.4082 172.071 55.0722C171.527 54.7362 170.871 54.5682 170.103 54.5682C169.207 54.5682 168.431 54.7522 167.775 55.1202C167.119 55.4722 166.615 56.0002 166.263 56.7042C165.911 57.4082 165.735 58.2802 165.735 59.3203C165.735 60.3122 165.927 61.1762 166.311 61.9122C166.695 62.6322 167.239 63.1922 167.943 63.5922C168.663 63.9922 169.527 64.1922 170.535 64.1922C171.127 64.1922 171.711 64.0962 172.287 63.9042C172.879 63.6962 173.527 63.2962 174.231 62.7042L175.167 64.0002C174.799 64.3682 174.359 64.6962 173.847 64.9842C173.335 65.2562 172.775 65.4802 172.167 65.6562C171.559 65.8163 170.935 65.8963 170.295 65.8963ZM179.98 65.6562V49.8402H181.78V65.6562H179.98ZM177.148 54.8562V53.1282H184.948V54.8562H177.148ZM191.937 65.8963C190.849 65.8963 189.865 65.6163 188.985 65.0562C188.105 64.4802 187.409 63.7042 186.897 62.7282C186.385 61.7362 186.129 60.6162 186.129 59.3682C186.129 58.1042 186.393 56.9842 186.921 56.0082C187.449 55.0322 188.153 54.2642 189.033 53.7042C189.929 53.1442 190.929 52.8642 192.033 52.8642C192.689 52.8642 193.297 52.9602 193.857 53.1522C194.417 53.3442 194.913 53.6162 195.345 53.9682C195.793 54.3042 196.161 54.7042 196.449 55.1682C196.753 55.6162 196.961 56.1042 197.073 56.6322L196.545 56.3682L196.617 53.1282H198.417V65.6562H196.593V62.5842L197.073 62.2722C196.961 62.7522 196.745 63.2162 196.425 63.6642C196.105 64.0962 195.713 64.4802 195.249 64.8162C194.801 65.1522 194.289 65.4162 193.713 65.6082C193.153 65.8003 192.561 65.8963 191.937 65.8963ZM192.345 64.1682C193.177 64.1682 193.921 63.9682 194.577 63.5682C195.233 63.1522 195.745 62.5842 196.113 61.8642C196.497 61.1282 196.689 60.2962 196.689 59.3682C196.689 58.4402 196.497 57.6162 196.113 56.8962C195.745 56.1762 195.233 55.6082 194.577 55.1922C193.921 54.7762 193.177 54.5682 192.345 54.5682C191.497 54.5682 190.745 54.7762 190.089 55.1922C189.449 55.6082 188.937 56.1762 188.553 56.8962C188.185 57.6162 188.001 58.4402 188.001 59.3682C188.001 60.2802 188.185 61.1042 188.553 61.8402C188.921 62.5602 189.433 63.1282 190.089 63.5442C190.745 63.9602 191.497 64.1682 192.345 64.1682ZM206.028 65.8963C204.956 65.8963 203.996 65.6963 203.148 65.2962C202.3 64.8962 201.628 64.3682 201.132 63.7122L202.404 62.6082C202.868 63.1682 203.412 63.5922 204.036 63.8802C204.676 64.1682 205.388 64.3122 206.172 64.3122C206.572 64.3122 206.932 64.2722 207.252 64.1922C207.572 64.0962 207.852 63.9602 208.092 63.7842C208.332 63.6082 208.516 63.4002 208.644 63.1602C208.772 62.9202 208.836 62.6562 208.836 62.3682C208.836 61.8402 208.604 61.4002 208.14 61.0482C207.932 60.9042 207.636 60.7602 207.252 60.6162C206.868 60.4562 206.404 60.3042 205.86 60.1602C204.964 59.9042 204.22 59.6482 203.628 59.3922C203.036 59.1202 202.572 58.8082 202.236 58.4562C201.996 58.1682 201.812 57.8562 201.684 57.5202C201.572 57.1842 201.516 56.8162 201.516 56.4162C201.516 55.9042 201.62 55.4322 201.828 55.0002C202.052 54.5682 202.356 54.1922 202.74 53.8722C203.14 53.5362 203.604 53.2882 204.132 53.1282C204.676 52.9522 205.26 52.8642 205.884 52.8642C206.476 52.8642 207.06 52.9442 207.636 53.1042C208.212 53.2642 208.748 53.4962 209.244 53.8002C209.74 54.1042 210.164 54.4642 210.516 54.8802L209.412 56.0802C209.108 55.7602 208.772 55.4722 208.404 55.2162C208.036 54.9602 207.644 54.7602 207.228 54.6162C206.828 54.4722 206.412 54.4002 205.98 54.4002C205.596 54.4002 205.236 54.4482 204.9 54.5442C204.58 54.6402 204.3 54.7762 204.06 54.9522C203.836 55.1122 203.66 55.3122 203.532 55.5522C203.42 55.7922 203.364 56.0562 203.364 56.3442C203.364 56.5842 203.412 56.8002 203.508 56.9922C203.604 57.1842 203.74 57.3522 203.916 57.4962C204.14 57.6722 204.452 57.8402 204.852 58.0002C205.268 58.1442 205.78 58.2962 206.388 58.4562C207.092 58.6482 207.684 58.8482 208.164 59.0562C208.66 59.2482 209.068 59.4802 209.388 59.7522C209.82 60.0722 210.124 60.4402 210.3 60.8562C210.492 61.2722 210.588 61.7442 210.588 62.2722C210.588 62.9762 210.388 63.6002 209.988 64.1442C209.604 64.6882 209.068 65.1202 208.38 65.4402C207.692 65.7443 206.908 65.8963 206.028 65.8963Z" fill="#1E554F"/>
</svg>
