<svg width="177" height="177" viewBox="0 0 177 177" fill="none" xmlns="http://www.w3.org/2000/svg">
<path d="M33.3389 95.0832C31.3902 92.6622 31.0303 89.8935 32.327 87.5567C33.7171 85.0514 37.0384 84.127 39.3272 85.6083C40.2747 86.2216 40.7383 87.16 40.6154 88.222C40.3752 88.3171 40.3288 88.0989 40.2412 87.9745C39.0072 86.2209 36.6003 85.7772 35.0164 87.0155C33.3109 88.3489 33.0399 90.8893 34.4235 92.5718C35.8795 94.342 38.2755 94.8968 40.5498 93.9657C43.3441 92.8216 44.7321 90.5491 45.3832 87.7527C45.788 86.0133 45.7229 86.0259 44.0405 85.436C39.7695 83.9386 36.8533 81.1225 36.1913 76.5422C35.4949 71.7238 36.7278 67.1614 41.8925 64.7531C42.979 64.2463 42.974 64.2046 42.5267 63.0437C40.9224 58.8811 43.0487 54.6817 47.2766 53.8055C48.9343 53.4619 50.575 53.6092 51.832 54.9645C52.4053 55.5828 52.793 56.3029 52.5156 57.2098C52.1657 57.1934 52.1375 56.9169 52.0205 56.7388C51.1046 55.3436 49.5379 54.8449 47.9314 55.4459C46.3142 56.051 45.3103 57.6435 45.5585 59.2367C45.6202 59.6327 45.6952 60.0351 45.8316 60.4098C46.8049 63.0835 48.9688 63.7829 51.3016 62.1508C52.0062 61.6578 52.6473 61.0667 53.2791 60.4791C54.5926 59.2573 56.0255 58.2005 57.5544 57.2684C57.7215 57.1665 57.9345 57.1085 57.9742 56.8439C57.9224 56.5151 57.6121 56.363 57.3986 56.1439C54.777 53.4536 54.7269 49.4993 56.3104 46.7936C57.5461 44.6822 60.1389 43.6317 62.495 44.2228C63.4452 44.4612 64.2296 44.942 64.657 45.8725C64.4067 46.1587 64.2069 45.9608 64.0164 45.8741C62.7603 45.3017 61.4581 45.1578 60.3312 46.0189C59.1318 46.9354 58.9908 48.3372 59.2293 49.7226C59.6129 51.951 61.8019 53.9334 64.05 54.2083C64.5948 54.2748 64.8634 54.1452 64.9573 53.5105C65.988 46.539 70.818 41.8214 77.7875 40.897C79.2201 40.707 80.6527 40.6481 82.0891 40.7317C82.7883 40.7725 83.3685 40.5948 83.9416 40.1961C86.2101 38.6172 88.632 37.2847 91.4224 37.0403C97.1581 36.5382 102.55 37.326 106.656 41.933C108.844 44.3875 109.846 47.4296 110.68 50.5329C110.844 51.1421 110.959 51.7647 111.094 52.3814C111.411 53.8221 112.294 54.3695 113.73 54.0159C115.638 53.5464 117.688 51.095 117.84 49.0998C118.031 46.5962 115.53 44.7777 113.158 45.6862C112.849 45.8046 112.587 46.0815 112.207 46.011C112.404 45.0041 113.496 44.2105 114.909 44.0346C118.524 43.5846 121.833 46.5029 121.934 50.1368C121.992 52.2329 121.353 54.0347 120.064 55.6481C119.87 55.8913 119.599 56.0863 119.527 56.4135C119.584 56.7103 119.829 56.8303 120.045 56.9627C121.874 58.0826 123.462 59.5013 125.026 60.9521C125.384 61.2841 125.755 61.6106 126.158 61.8841C128.01 63.1412 129.991 62.8576 131.098 61.1977C132.207 59.5359 131.753 57.1181 130.09 55.9695C128.12 54.6086 125.877 55.2293 125.036 56.9589C124.975 57.0852 124.903 57.215 124.679 57.2384C124.398 56.6996 124.63 56.2028 124.86 55.7292C125.627 54.1466 127.649 53.3368 129.703 53.7682C134.137 54.6999 136.21 58.9371 134.346 63.2638C134.154 63.7087 133.94 64.1443 133.724 64.6117C134.626 65.0813 135.487 65.5259 136.345 65.9777C142.086 69.0011 142.531 74.9131 140.144 79.4529C138.594 82.3985 136.095 84.2658 132.94 85.2707C131.632 85.6873 131.597 85.7392 131.88 87.1109C132.546 90.3438 134.128 92.8406 137.456 93.8478C139.93 94.5968 142.321 93.742 143.422 91.805C144.354 90.1636 143.957 88.2227 142.477 87.1935C140.849 86.0608 138.887 86.2392 137.735 87.6588C137.44 88.0225 137.246 88.4688 136.973 88.9338C136.48 88.2752 136.788 87.6877 136.983 87.1576C137.842 84.8222 140.957 84.0858 143.276 85.6412C145.239 86.9576 146.11 89.3772 145.494 91.798C144.693 94.9478 141.884 97.052 138.494 97.2131C134.479 97.404 131.179 95.6983 128.068 93.4627C125.354 91.5121 123.395 88.9658 122.276 85.7952C122.193 85.5578 122.159 85.2515 121.879 85.1575C120.666 84.7504 119.447 84.3627 118.095 83.9239C118.368 84.7273 118.852 85.1369 119.386 85.4648C121.626 86.8407 123.074 88.8583 123.918 91.2811C124.918 94.1518 126.852 96.1035 129.484 97.4742C132.019 98.7948 134.361 100.37 135.782 102.948C137.477 106.024 137.825 109.153 135.832 112.262C135.359 113 134.714 113.577 133.911 113.957C133.572 114.117 133.231 114.255 132.789 113.975C133.19 113.471 133.677 113.069 133.987 112.518C135.863 109.185 134.465 104.815 130.894 102.919C129.975 102.431 129.009 102.061 128.004 101.797C125.696 101.191 123.372 100.628 121.318 99.0833C121.249 99.9393 121.56 100.452 122.081 100.899C122.766 101.488 123.604 101.825 124.344 102.324C128.194 104.925 130.085 108.726 130.698 113.16C131.452 118.621 129.212 123.028 125.381 126.754C125.165 126.964 124.95 127.224 124.424 127.164C124.667 126.785 124.873 126.466 125.077 126.147C126.355 124.143 127.41 122.038 127.852 119.682C128.764 114.816 127.094 110.985 123.127 108.103C121.863 107.185 120.482 106.474 119.054 105.849C118.672 105.682 118.364 105.628 118.071 106.014C116.071 108.639 113.298 109.573 110.125 109.637C109.314 109.653 108.526 109.84 107.763 110.104C106.329 110.6 105.804 111.48 106.033 112.952C106.475 115.799 108.876 118.478 111.659 119.109C113.061 119.426 114.428 119.304 115.468 118.119C116.203 117.279 116.271 116.29 115.69 115.415C115.07 114.48 113.974 114.035 112.993 114.318C112.313 114.515 111.88 115.216 111.968 116.011C111.993 116.236 112.075 116.455 111.916 116.84C111.106 116.216 110.924 115.397 110.932 114.56C110.956 111.974 113.416 109.864 115.996 110.154C118.972 110.489 121.057 112.034 122.035 114.856C123.112 117.963 122.448 120.813 120.139 123.129C116.749 126.53 112.665 126.879 108.299 125.445C105.709 124.594 103.655 122.952 101.897 120.901C101.075 119.944 100.605 119.988 99.9953 121.114C99.1893 122.601 99.1646 124.148 99.9091 125.667C100.691 127.263 102.207 127.425 103.732 127.498C104.946 127.556 106.042 127.941 107.037 128.619C108.914 129.898 109.161 131.831 107.69 133.59C106.379 135.157 104.68 136.073 102.712 136.495C99.4978 137.185 96.4736 136.655 93.6848 134.92C92.4716 134.165 91.6065 133.099 91.2857 131.669C91.189 131.239 91.0731 130.778 91.5356 130.229C91.8625 131.275 92.3266 132.12 93.107 132.734C95.6643 134.746 98.5665 135.35 101.723 134.745C102.863 134.527 103.775 133.859 104.456 132.904C105.181 131.886 104.946 130.95 103.8 130.455C102.557 129.917 101.21 129.956 99.8956 129.889C98.9409 129.84 98.0004 129.73 97.0835 129.49C93.2593 128.488 91.5819 124.612 93.3108 120.829C93.8693 119.607 94.7207 118.593 95.5835 117.587C96.2961 116.755 97.0231 115.933 97.5221 114.947C97.7247 114.547 97.993 114.153 97.8979 113.652C97.4815 113.468 97.2408 113.791 96.9709 113.963C95.0986 115.153 93.3219 116.48 91.5334 117.79C89.3038 119.424 87.885 119.433 85.6552 117.789C83.9867 116.558 82.3409 115.298 80.6159 114.145C80.238 113.893 79.8735 113.627 79.3644 113.493C79.3876 114.496 79.8332 115.265 80.3177 116.011C80.9319 116.956 81.7201 117.764 82.4414 118.625C83.3385 119.695 84.0643 120.843 84.2992 122.266C84.6115 124.158 83.6204 126.002 81.8343 126.737C80.9761 127.09 80.0519 127.192 79.1686 127.448C77.2334 128.009 76.7314 129.454 77.8976 131.085C78.8203 132.376 80.4114 132.821 82.1505 132.276C84.0446 131.682 85.0253 130.538 85.0264 128.856C85.0269 128.294 84.9249 127.732 84.8682 127.154C86.0313 127.414 86.7869 128.572 86.82 130.078C86.8714 132.406 85.1992 134.699 82.748 135.662C78.1203 137.48 72.8336 133.824 72.8834 128.841C72.8988 127.312 73.6335 126.303 75.2397 125.995C76.5565 125.743 77.6612 125.129 78.7669 124.458C80.3862 123.476 80.5111 122.301 79.1368 120.973C78.9531 120.796 78.7595 120.628 78.4967 120.484C78.9989 121.314 79.4367 122.149 79.2267 123.154C79.0277 124.107 78.1828 124.804 77.1756 124.779C77.6361 123.804 78.1267 122.843 77.7239 121.738C77.665 121.576 77.6214 121.408 77.553 121.251C76.9144 119.785 76.4197 119.714 75.4466 120.95C72.6301 124.528 68.961 126.394 64.3936 126.383C60.2842 126.373 56.9235 124.131 55.5911 120.584C54.0934 116.596 55.8611 112.225 59.528 110.849C61.9687 109.933 64.5557 110.612 65.7666 112.527C66.5155 113.712 66.7064 114.989 66.1518 116.314C66.0257 116.616 65.876 116.963 65.4395 116.949C65.2183 116.727 65.2992 116.456 65.289 116.208C65.229 114.735 64.0116 114.019 62.6877 114.681C61.7312 115.159 61.1573 116.079 61.2698 116.953C61.4171 118.096 62.3479 119.035 63.5712 119.207C65.5833 119.489 67.3407 118.864 68.8293 117.536C70.0367 116.459 70.8557 115.116 71.2053 113.512C71.451 112.385 71.1903 111.8 70.1687 111.25C68.8176 110.523 67.3214 110.328 65.8381 110.191C63.0711 109.935 60.9421 108.651 59.3325 106.434C59.0483 106.043 58.788 105.684 58.2119 105.941C54.8968 107.423 52.0209 109.406 50.4585 112.843C48.8216 116.443 49.4004 119.91 51.1736 123.286C51.5628 124.027 52.0064 124.733 52.5171 125.397C52.6333 125.549 52.787 125.711 52.6463 125.952C52.2836 126.083 52.0693 125.792 51.8273 125.624C48.9555 123.63 47.3525 120.759 46.8633 117.426C46.0134 111.636 47.8671 106.709 52.3071 102.821C53.0269 102.191 53.8865 101.769 54.707 101.29C54.8807 101.189 55.057 101.083 55.2053 100.95C55.5009 100.684 55.9465 100.379 55.7056 99.9626C55.4451 99.5127 55.0321 99.9113 54.7284 100.054C53.0213 100.855 51.2024 101.291 49.3828 101.724C46.732 102.355 44.4985 103.54 43.161 106.078C41.7818 108.695 42.258 112.709 44.7309 114.166C44.7938 114.203 44.8188 114.304 44.8672 114.385C44.5813 114.794 44.1985 114.653 43.8498 114.572C42.4086 114.238 41.6562 113.15 41.0882 111.923C39.2719 107.995 40.3036 103.441 43.6813 100.273C44.8894 99.1405 46.253 98.2291 47.7055 97.4571C50.2616 96.0987 52.2013 94.2386 53.2402 91.4457C54.1234 89.071 55.7223 87.1854 57.795 85.706C58.2964 85.3482 58.8492 85.0032 59.1017 84.2997C58.4508 84.1493 57.9796 84.5778 57.4441 84.6618C55.7766 84.9228 55.0174 85.9554 54.2572 87.4483C51.3003 93.2553 46.4836 96.6857 39.9807 97.4511C37.5157 97.7411 35.1663 97.0782 33.3389 95.0832ZM84.9856 110.251C86.1492 111.15 87.5035 110.992 88.8599 111.072C90.4039 111.163 91.6758 110.756 92.8685 109.84C95.5271 107.796 97.9586 105.514 100.13 102.961C101.751 101.054 102.967 98.9075 103.711 96.5109C103.847 96.0722 104.098 95.623 103.901 95.0094C102.57 96.1504 101.789 97.5733 101.013 99.2212C100.757 97.5207 101.446 95.6351 102.68 94.2673C103.374 93.4981 104.062 92.7231 104.734 91.9345C104.943 91.6878 105.184 91.4225 105.084 90.8319C103.842 91.6735 102.87 92.7581 101.385 93.2439C101.496 92.7492 101.765 92.567 101.967 92.3402C102.599 91.6311 103.233 90.9242 103.859 90.2098C104.383 89.6119 104.592 88.986 104.306 88.1598C103.779 86.6433 103.563 85.0858 104.137 83.5111C104.186 83.3768 104.259 83.1746 104.014 83.0352C103.477 83.5979 102.985 84.1676 103.287 85.0185C102.438 85.3623 102.26 86.6045 101.133 86.4337C101.071 86.4242 100.932 86.5796 100.914 86.6748C100.806 87.2253 100.465 87.1386 100.063 87.0513C99.441 86.9158 98.8037 86.8255 98.5689 87.6696C97.7119 87.4041 97.0593 86.6974 96.1658 86.8473C95.9634 87.1686 96.376 87.3562 96.2068 87.6663C95.6548 87.7372 95.2642 87.3427 94.844 87.0845C93.42 86.2095 93.428 86.1965 92.6946 87.5356C91.9498 87.2964 92.3285 86.2994 91.6646 85.9663C90.7422 86.7562 91.0324 87.9949 90.5841 88.9877C90.1773 88.6325 90.1863 88.2464 90.1813 87.8808C90.1677 86.8729 90.1151 85.8605 90.1877 84.8576C90.3367 82.7957 91.0043 80.9303 92.4469 79.385C93.3073 78.4633 94.3455 77.8046 95.4466 77.2269C97.4361 76.1829 99.4698 75.232 101.53 74.3375C101.921 74.1678 102.161 73.894 102.012 73.4606C101.84 72.9613 101.434 73.1791 101.141 73.285C100.301 73.5889 99.4372 73.5571 98.5769 73.5153C96.9884 73.4382 96.1212 72.0732 96.6816 70.5872C96.9848 69.7829 97.6117 69.2972 98.3092 68.8649C99.0821 68.3857 99.1008 67.6902 98.3596 67.1343C98.0806 66.9251 97.755 66.8247 97.405 66.7639C95.1235 66.3677 92.9158 66.6958 90.8126 67.5747C89.1769 68.2583 87.5934 68.3515 85.9572 67.6831C85.6381 67.5529 85.3041 67.4594 84.9776 67.3472C82.4984 66.4958 79.9803 66.3044 77.414 66.8925C76.8916 67.0121 76.4199 67.2117 76.1385 67.6959C75.8699 68.1581 75.8258 68.5508 76.4616 68.7809C76.9734 68.9662 77.4733 69.1983 77.9516 69.4591C78.8025 69.9232 79.3096 70.624 79.1988 71.6353C79.0908 72.6204 78.4312 73.2363 77.3343 73.5341C75.5069 74.0302 73.8754 73.2043 72.2089 72.7426C71.708 72.604 71.484 71.8969 71.8162 71.3351C72.1144 70.8309 72.5918 70.9363 73.0303 71.1861C73.2298 71.2997 73.4054 71.4552 73.6047 71.5691C74.0843 71.8436 74.5898 72.0669 75.1571 71.9935C75.5131 71.9473 75.8179 71.7593 75.9556 71.4073C76.0758 71.1009 75.9342 70.8582 75.7047 70.6427C74.8767 69.8653 72.6988 69.7557 71.7996 70.4539C71.0432 71.0412 70.8276 72.9635 71.4299 74.0051C72.4262 73.6223 73.4481 73.6577 74.4484 74.0148C77.4373 75.082 80.3169 76.3922 83.0548 78.0006C84.429 78.8078 85.4969 79.9275 86.1791 81.3738C87.2752 83.6967 87.3533 86.145 86.9946 88.6367C86.9703 88.8062 86.9442 88.987 86.6685 89.0353C86.2101 88.0823 86.4864 86.8046 85.4989 86.0332C84.8362 86.4097 85.2141 87.3799 84.4727 87.667C84.4077 87.5906 84.3343 87.5372 84.3057 87.4659C83.8563 86.3478 83.8627 86.3552 82.8125 87.0222C82.2974 87.3494 81.8098 87.7698 81.1559 87.7558C81.0243 87.3545 81.5486 87.0824 81.1949 86.7033C80.2505 86.8037 79.4939 87.4502 78.644 87.7145C78.3581 87.5211 78.5017 87.0267 78.2117 87.0589C77.2873 87.1617 76.594 86.7006 75.7875 86.3996C74.926 86.0781 74.9436 85.0662 74.1222 84.902C74.2 83.5647 73.0187 82.9111 72.481 81.9079C72.3356 81.6365 72.1864 81.2708 71.7859 81.2642C71.6172 81.3779 71.6203 81.5283 71.6195 81.6697C71.6101 83.2233 71.7012 84.7797 71.4691 86.3265C71.4337 86.5635 71.5616 86.7647 71.6477 86.9802C72.5009 89.1143 73.9303 90.8283 75.5551 92.4053C75.7677 92.6117 76.0975 92.7562 76.0557 93.1955C75.9416 93.1955 75.8212 93.2286 75.7309 93.1904C74.3391 92.6019 73.2744 91.5518 72.0526 90.4805C72.3354 91.5829 72.9506 92.3041 73.563 93.0224C74.2724 93.8545 75.0591 94.6272 75.6091 95.5825C76.2108 96.6279 76.5739 97.7345 76.3342 98.9877C75.5961 97.5053 74.7808 96.1142 73.4405 95.0161C73.2946 95.4192 73.3509 95.6674 73.4209 95.9194C73.8226 97.3662 74.3272 98.7723 75.0943 100.07C77.5486 104.221 81.0988 107.314 84.9856 110.251ZM109.63 68.4492C109.543 68.3849 109.456 68.3206 109.302 68.2065C110.826 70.5291 113.15 71.8402 115.44 72.8067C117.499 73.676 119.957 73.6211 122.468 73.3524C121.729 74.3849 120.598 74.3823 119.875 75.0607C120.005 75.2061 120.064 75.3171 120.155 75.367C122.551 76.6719 125.102 77.2371 127.807 76.7963C128.9 76.6185 129.876 76.0757 130.559 75.148C131.327 74.1063 131.159 72.957 130.115 72.2044C128.931 71.3519 127.556 71.1887 126.162 71.3161C124.791 71.4412 123.424 71.6507 122.069 71.8989C117.399 72.7547 113.304 71.5546 109.63 68.4492ZM107.23 44.7932C105.772 42.3474 103.109 40.1335 101.552 40.0942C101.981 40.3622 102.395 40.6137 102.801 40.878C103.053 41.0416 103.142 41.2849 102.983 41.5471C102.826 41.8062 102.591 41.7106 102.374 41.6076C102.07 41.4638 101.765 41.3225 101.461 41.1803C104.15 42.9415 105.343 44.3329 105.094 45.5939C105.039 45.601 104.977 45.6271 104.929 45.6113C104.821 45.5761 104.703 45.5405 104.62 45.4694C102.045 43.2811 98.9689 43.0173 95.8158 43.3088C92.1997 43.6432 88.6476 43.3942 85.1002 42.6703C82.5238 42.1444 79.9338 42.0819 77.3749 42.9122C80.3943 42.3104 83.2966 42.9975 86.1853 43.7062C89.446 44.5061 92.712 44.9564 96.0878 44.5791C98.1294 44.3511 100.158 44.5765 102.06 45.5258C104.551 46.7698 106.339 48.6865 107.635 51.112C107.814 51.4454 107.906 51.8656 108.439 52.0919C109 49.4865 108.493 47.1443 107.23 44.7932ZM53.1541 77.2589C54.5068 77.0466 55.7923 76.6205 56.9271 75.8565C57.6913 75.3421 58.4909 75.0808 59.3994 74.9753C61.1047 74.7776 62.7641 73.2387 63.1563 71.4004C62.7268 72.3342 62.1654 72.8714 61.5766 73.3677C59.8922 74.7875 58.0332 75.3634 55.9057 74.4151C55.0392 74.0288 54.1753 73.6359 53.319 73.2273C52.2815 72.7321 51.278 72.1582 50.1518 71.8734C48.7723 71.5245 47.2265 72.2102 46.7283 73.3844C46.2525 74.5057 46.7394 75.5962 48.1009 76.4645C49.6198 77.4329 51.2866 77.5234 53.1541 77.2589ZM44.8259 78.3076C43.4384 76.2344 43.6409 74.0999 44.736 71.9295C44.4818 71.8759 44.3608 71.8087 44.2697 71.8372C41.0021 72.8571 39.6604 75.6688 40.9753 78.3931C42.5045 81.5613 46.5942 83.5239 50.2244 82.8259C50.7451 82.7258 51.3557 82.8719 51.8695 82.348C49.1572 81.6165 46.6104 80.7346 44.8259 78.3076ZM125.503 82.5032C126.748 82.8074 128.02 82.8363 129.279 82.7243C131.916 82.4901 134.183 81.4607 135.777 79.2736C136.658 78.0661 137.227 76.7267 136.843 75.1596C136.417 73.425 134.133 71.6301 132.544 71.8039C132.424 72.0664 132.615 72.2379 132.738 72.4203C134.002 74.286 133.876 76.1497 132.712 77.9959C131.406 80.0681 129.385 81.1112 127.128 81.7845C126.579 81.9482 126.007 82.031 125.447 82.1601C125.205 82.2159 125.154 82.3219 125.503 82.5032ZM118.652 116.525C118.535 116.087 118.417 115.649 118.3 115.211C118.706 117.026 118.315 118.588 116.915 119.837C115.19 121.376 113.116 121.602 110.995 121.107C106.539 120.068 103.245 115.234 103.861 110.709C104.234 107.967 105.482 105.756 108.033 104.428C109.249 103.795 110.553 103.708 111.888 103.659C113.827 103.589 115.363 102.264 115.514 100.624C114.742 102.3 113.055 103.149 111.004 102.858C108.577 102.514 106.638 103.394 105.17 105.273C103.145 107.865 102.834 110.875 103.46 113.969C104.359 118.414 108.804 122.538 113.906 121.82C116.619 121.438 118.705 119.255 118.652 116.525ZM72.5325 105.764C70.9329 103.856 68.9482 102.867 66.4007 103.06C64.4855 103.205 62.8194 102.742 61.9668 100.752C62.4127 102.838 63.7444 103.847 66.0094 103.854C68.9099 103.863 71.2167 104.96 72.6651 107.555C75.6841 112.965 71.8018 119.921 66.3895 121.18C64.2558 121.676 62.2494 121.351 60.5623 119.87C59.15 118.631 58.936 117.009 59.3201 115.245C58.7884 116.174 58.6762 117.141 58.9597 118.153C59.6614 120.657 62.4015 122.3 65.2997 121.958C72.7518 121.08 76.8373 112.077 72.5325 105.764ZM119.144 57.9457C117.772 57.0145 116.238 56.4379 114.681 55.9096C111.194 54.726 107.577 54.2496 103.929 54.0072C101.297 53.8323 98.693 54.0252 96.237 55.1513C95.2747 55.5926 94.5009 56.1458 94.1165 56.7836C96.9163 55.077 99.9673 54.6274 103.118 54.7871C105.672 54.9164 108.21 55.2663 110.714 55.7928C114.906 56.6738 118.881 58.0193 121.959 61.2241C122.18 61.4545 122.357 61.7743 122.785 61.8943C121.884 60.2802 120.762 58.9693 119.144 57.9457ZM68.0364 84.4836C67.3998 86.5709 66.258 88.3283 64.6244 89.777C63.2049 91.0357 61.7346 92.2415 60.4756 93.6715C59.532 94.743 58.815 95.9485 58.3939 97.3143C58 98.5926 58.037 99.889 58.228 101.347C58.6051 100.958 58.5242 100.63 58.5331 100.338C58.5557 99.587 58.6684 98.8503 58.8575 98.1271C59.4284 95.9434 60.8418 94.3383 62.476 92.884C64.064 91.4704 65.7743 90.1846 67.1084 88.5037C69.1095 85.9827 69.4799 82.6864 67.9528 80.2216C68.3161 81.6792 68.424 83.0098 68.0364 84.4836ZM68.8257 66.7881C68.3343 67.9555 67.9338 69.1534 67.6107 70.378C66.6379 74.0656 64.4365 76.6859 60.8997 78.1821C56.6358 79.9856 52.2859 80.4781 47.6626 79.0928C48.0814 79.4883 48.4821 79.6214 48.8708 79.7637C51.9875 80.905 55.1509 80.7106 58.2907 79.9566C61.2563 79.2446 63.8877 77.932 65.8246 75.4284C67.8655 72.7909 68.0757 69.5309 69.0181 66.5186C68.9956 66.5295 68.9655 66.5345 68.952 66.5523C68.9176 66.5979 68.8908 66.6491 68.8257 66.7881ZM114.636 93.0382C114.916 93.2859 115.196 93.5332 115.476 93.7814C117.083 95.2074 118.333 96.8606 118.73 99.0295C118.872 99.8036 118.933 100.592 119.06 101.613C119.374 100.606 119.435 99.8406 119.294 99.034C118.756 95.9611 116.98 93.6948 114.608 91.8327C113.343 90.8391 111.989 89.959 110.719 88.9711C109.183 87.7767 108.74 86.2117 109.352 84.3612C109.552 83.7538 109.776 83.1542 110.063 82.3426C109.402 83.1365 108.889 83.7536 108.568 84.5C107.839 86.1913 108.308 87.621 109.492 88.9302C110.959 90.5508 112.845 91.6331 114.636 93.0382ZM106.509 59.1518C107.308 59.6135 108.084 60.1101 108.732 60.7761C110.977 63.0795 112.647 65.7321 113.618 68.8118C113.725 69.1535 113.732 69.5772 114.173 69.7984C114.401 62.854 106.258 55.7764 99.7132 57.4302C102.219 57.5277 104.4 57.9652 106.509 59.1518ZM68.1963 57.7369C69.5698 56.4681 70.8947 55.1413 72.327 53.9429C75.1635 51.5697 78.4596 50.6638 82.1335 51.085C83.4425 51.235 84.6482 51.7253 86.102 52.2711C85.4015 51.6311 84.8922 51.1758 84.2342 50.9253C81.1123 49.7371 78.0658 49.8847 75.0406 51.3241C71.4902 53.0135 69.3854 56.2275 66.8514 58.9938C67.2704 58.6028 67.6892 58.2119 68.1963 57.7369ZM119.239 79.7917C122.949 80.522 126.616 80.7768 130.088 78.8692C122.845 80.9178 116.548 78.9015 110.812 74.3866C110.873 74.5422 110.949 74.662 111.037 74.7716C113.14 77.3797 115.893 78.9392 119.239 79.7917ZM121.061 68.486C122.863 68.799 124.611 68.4791 126.352 68.0473C125.374 67.9849 124.396 68.025 123.422 67.9773C120.61 67.8393 118.403 66.7879 117.444 63.9063C117.317 63.5262 117.13 63.163 116.94 62.8082C116.541 62.0606 116.058 61.3756 115.357 60.8618C116.254 62.0708 116.6 63.507 117.08 64.885C117.73 66.7521 118.878 68.0787 121.061 68.486ZM103.536 71.5219C102.902 71.3545 102.419 70.9725 101.972 70.5044C101.259 69.7582 100.284 69.8145 99.5984 70.6038C99.1331 71.1393 99.2752 71.6621 99.9661 71.825C100.473 71.9446 100.997 71.8896 101.502 71.7639C102.194 71.5919 102.733 71.9008 102.836 72.5117C103.017 73.592 103.575 73.7306 104.47 73.4555C104.655 73.3986 104.869 73.4392 105.07 73.4345C105.349 73.4278 105.699 73.5246 105.81 73.1684C105.914 72.8356 105.707 72.5616 105.462 72.3433C104.949 71.8854 104.296 71.7486 103.536 71.5219ZM130.117 100.043C129.145 99.5234 128.099 99.1606 127.034 98.9652C123.817 98.3756 121.873 96.4025 120.736 93.4599C120.476 92.7863 120.144 92.1404 119.845 91.4816C119.978 92.3805 120.267 93.2127 120.521 94.0557C121.364 96.8587 123.185 98.608 126.041 99.3089C127.63 99.6988 129.225 100.099 130.674 100.9C131.341 101.268 131.985 101.678 132.639 102.069C132.044 101.136 131.151 100.601 130.117 100.043ZM119.742 62.5266C120.9 64.787 122.709 65.9952 125.277 66.2135C126.594 66.3257 127.915 66.2712 129.235 66.4486C130.539 66.624 131.822 66.8807 133.104 67.1644C130.886 66.1233 128.515 65.765 126.112 65.5757C123.815 65.3947 121.886 64.5469 120.5 62.6348C120.134 62.1295 119.776 61.6112 119.111 61.0679C119.358 61.6449 119.523 62.0291 119.742 62.5266ZM75.6168 58.4319C74.2551 58.8599 73.0401 59.5406 71.9712 60.4724C76.6707 57.537 83.9336 57.4632 87.5403 61.9235C86.8399 60.4928 85.758 59.4496 84.3251 58.7391C81.5142 57.3452 78.6438 57.569 75.6168 58.4319ZM80.1691 54.331C78.7176 54.4511 77.3768 54.8872 76.1544 55.6628C77.0793 55.5766 77.9752 55.3761 78.8822 55.2758C79.6941 55.1861 79.7561 55.2841 79.8289 56.1105C81.0468 56.1731 82.2276 56.4773 83.4214 56.75C82.6884 55.9644 81.7472 55.6611 80.5184 55.6341C81.2133 54.8739 81.8345 55.1679 82.4201 55.1987C83.0534 55.2319 83.6273 55.6447 84.3389 55.5399C83.5753 54.6159 82.4875 54.2999 80.1691 54.331ZM55.8418 96.1958C56.7364 94.5389 57.0142 93.8011 57.0109 93.0658C56.9634 93.1211 56.9176 93.1581 56.8929 93.2058C56.8001 93.3844 56.7138 93.5664 56.6256 93.7474C55.2928 96.4846 53.4588 98.6173 50.2315 99.098C49.7792 99.1654 49.3237 99.284 48.8997 99.4537C48.1054 99.7716 47.333 100.144 46.5515 100.494C48.0588 100.013 49.6042 99.8044 51.112 99.4625C53.091 99.0138 54.6536 97.994 55.8418 96.1958ZM85.05 48.6544C86.1895 49.0659 87.3571 49.0896 88.5487 48.9249C86.326 48.7118 84.3666 47.7664 82.3677 46.8901C79.9537 45.8315 77.4589 45.9309 74.9719 46.6688C77.0365 46.3914 79.1008 46.3152 81.0987 47.024C82.3968 47.4847 83.6494 48.0734 85.05 48.6544ZM55.564 64.2833C54.5723 65.6203 53.2312 66.1399 51.5868 66.1131C50.4058 66.0937 49.2222 66.2266 48.0396 66.2918C48.0432 66.3744 48.047 66.457 48.0506 66.5397C49.2511 66.5397 50.4545 66.4857 51.6515 66.5511C54.117 66.6856 55.7583 65.5005 56.8521 63.4124C57.5812 62.0206 58.1637 60.5402 59.4118 59.4801C58.5035 59.9393 57.9243 60.6992 57.4009 61.5246C56.8312 62.4225 56.2289 63.2999 55.564 64.2833ZM80.3018 82.5694C80.7397 82.5222 81.2186 82.7288 81.6115 82.3748C80.9682 80.9583 77.9965 80.2276 76.4773 81.1695C77.4881 82.2654 78.8155 82.4227 80.3018 82.5694ZM68.1687 100.015C69.2443 99.6917 70.2878 100.094 71.438 100.235C70.9412 99.4905 70.2998 99.1908 69.5719 99.1037C68.1032 98.9279 66.6502 99.0996 65.2119 99.4096C64.9388 99.4684 64.5813 99.4971 64.5768 99.8675C64.5727 100.205 64.9146 100.296 65.1631 100.428C65.4349 100.572 65.7164 100.527 66.003 100.462C66.6737 100.31 67.3471 100.17 68.1687 100.015ZM98.3563 80.7844C97.2615 81.0003 96.2429 81.3435 95.5451 82.3675C97.2509 82.9094 100.109 82.2052 100.626 81.156C100.003 80.5723 99.231 80.8041 98.3563 80.7844ZM107.881 98.7644C107.162 98.9186 106.496 99.1519 106.051 99.9486C106.82 99.8736 107.418 99.6354 108.061 99.6777C108.697 99.7196 109.307 99.88 109.927 99.9984C110.462 100.101 111.004 100.182 111.547 100.223C111.889 100.248 112.321 100.224 112.393 99.8044C112.472 99.3441 112.009 99.258 111.699 99.1899C110.493 98.9257 109.282 98.6595 107.881 98.7644ZM73.0675 77.9707C73.7153 78.1779 74.3644 78.1983 75.0022 77.9453C75.3342 77.8136 75.5978 77.5942 75.649 77.2074C75.7034 76.7944 75.4333 76.5734 75.1294 76.3939C74.6029 76.083 74.0439 75.8743 73.4151 75.9416C72.8557 76.0014 72.2946 76.1046 72.1441 76.7528C71.9961 77.3897 72.4573 77.6762 73.0675 77.9707ZM101.522 77.3412C101.654 78.2011 102.366 78.3128 103.006 78.3719C103.694 78.4357 104.395 78.2901 104.863 77.6919C105.206 77.2532 104.978 76.8833 104.61 76.5822C103.813 75.9283 102.081 76.2863 101.522 77.3412ZM92.9798 51.9106C95.8491 50.1694 98.9641 49.9366 102.202 50.4574C98.0597 48.6338 92.7833 50.5423 91.9195 52.5572C92.2365 52.3615 92.5535 52.1659 92.9798 51.9106ZM106.03 82.7965C105.425 84.6168 105.526 85.6681 106.46 86.5052C106.041 83.7235 107.133 81.481 108.741 79.4021C107.632 80.336 106.678 81.3624 106.03 82.7965ZM132.076 92.881C132.39 93.1061 132.704 93.331 133.018 93.5559C131.473 91.6018 130.056 89.5466 127.902 88.2033C129.103 89.88 130.394 91.4744 132.076 92.881ZM53.2687 68.5657H50.493C53.8974 69.5915 56.147 69.2505 56.9465 67.3666C55.8027 68.0713 54.6664 68.4965 53.2687 68.5657ZM92.8878 61.159C92.5803 61.3814 92.1961 61.5185 91.8737 62.0773C93.9842 61.1165 96.0068 60.7659 98.1123 60.8496C96.3606 60.2188 94.6418 60.0128 92.8878 61.159ZM48.9718 64.9538C49.8447 64.7641 50.7423 64.6634 51.5493 64.2285C49.0188 64.8824 46.3268 64.6988 43.8906 65.845C45.5362 65.5568 47.1819 65.2685 48.9718 64.9538ZM61.3906 56.7765C59.6386 57.2456 58.7948 57.686 58.197 58.4492C59.9529 57.4914 61.8318 57.0055 63.8126 56.7615C63.0561 56.7615 62.2993 56.7615 61.3906 56.7765ZM77.5115 84.546C77.3362 84.5411 77.1544 84.328 76.9794 84.5556C77.9408 85.4296 80.3704 85.5359 81.6186 84.613C80.1701 84.6696 78.8957 84.8142 77.5115 84.546ZM98.2509 85.2104C98.9228 85.1639 99.6143 85.1864 100.377 84.5244C98.7231 84.7608 97.2923 84.6846 95.7262 84.6571C96.563 85.0768 97.309 85.2299 98.2509 85.2104ZM78.9631 133.749C78.3209 133.703 77.7353 133.458 77.1649 133.192C76.6273 132.941 76.1736 132.551 75.7385 132.142C77.1862 134.023 79.4495 134.619 81.9432 133.747C80.9018 133.896 79.9995 133.876 78.9631 133.749ZM47.8202 90.0907C47.1304 90.9081 46.4405 91.7255 45.7507 92.5429C47.0464 91.7629 47.9464 90.635 48.8893 89.3177C48.3469 89.4722 48.1685 89.793 47.8202 90.0907ZM127.466 109.135C127.472 109.29 127.674 109.443 127.475 109.599C127.159 109.614 127.104 109.146 126.641 109.242C127.061 110.19 127.736 110.926 128.334 111.724C128.038 110.834 128.011 109.867 127.466 109.135ZM74.4746 64.8169C74.5675 64.7565 74.6605 64.6964 74.7533 64.6361C73.8868 64.8677 73.1817 65.309 72.7581 66.1062C73.2178 65.5909 73.8081 65.239 74.4746 64.8169ZM69.8783 79.7772C69.7515 79.1559 69.7589 78.5029 69.426 77.9292C69.6571 78.7121 69.6683 79.5378 69.9354 80.3152C69.9242 80.1752 69.9131 80.0352 69.8783 79.7772ZM102.005 47.7087C101.692 47.5839 101.395 47.3556 100.904 47.5174C101.441 47.8627 101.929 47.9512 102.445 47.9825C102.33 47.9083 102.215 47.8344 102.005 47.7087Z" fill="black"/>
<path d="M91.145 101.62C90.3502 101.372 89.6498 101.734 88.9378 101.685C87.304 101.573 85.6943 101.561 84.0781 101.983C83.3744 102.166 82.542 102.198 81.6915 101.57C83.2652 100.779 84.3643 99.4946 85.8787 98.7911C86.4806 98.5115 87.075 98.6295 87.6283 98.8905C88.3047 99.2098 88.952 99.2219 89.6161 98.9006C90.5135 98.4665 91.3221 98.6532 92.1333 99.1771C93.2873 99.9223 94.2995 100.869 95.7947 101.575C94.1069 102.398 92.6578 101.869 91.145 101.62Z" fill="black"/>
<path d="M84.412 94.2109C84.1477 92.6485 84.6353 91.7142 85.8859 91.45C85.6564 91.9213 85.4398 92.3308 85.2578 92.7552C85.1717 92.9558 85.0545 93.2034 85.3074 93.3807C85.5193 93.5292 85.6996 93.3835 85.8458 93.2511C86.3751 92.7716 86.8682 92.9985 87.3232 93.3432C88.2789 94.0671 89.1559 94.125 90.1051 93.2741C90.7358 92.7085 91.179 92.8585 92.0581 93.723C92.2657 92.8945 91.8815 92.2732 91.4329 91.7051C91.707 91.4095 91.9072 91.5697 92.088 91.6923C93.4732 92.6316 93.3649 94.8793 91.8031 95.4497C90.6539 95.8696 89.9407 96.4777 89.652 97.6446C89.5352 98.1167 89.1501 98.3504 88.6853 98.3704C88.1994 98.3912 87.8144 98.1117 87.7133 97.6629C87.4447 96.4718 86.7732 95.773 85.5646 95.5007C84.9791 95.3688 84.6353 94.852 84.412 94.2109Z" fill="black"/>
<path d="M93.0669 104.491C90.8323 106.187 84.607 105.863 83.1881 103.325C83.7903 103.016 84.3488 102.643 85.0789 102.938C85.5522 103.13 86.0218 103.158 86.5069 102.978C87.0048 102.794 87.5351 102.958 88.0169 102.906C89.5435 102.741 91.0637 103.43 92.5923 102.848C93.1478 102.637 93.6854 103.03 94.2428 103.254C94.0568 103.904 93.5253 104.121 93.0669 104.491Z" fill="black"/>
</svg>
