<svg width="95" height="19" viewBox="0 0 95 19" fill="none" xmlns="http://www.w3.org/2000/svg">
<path d="M6.368 18.8963C5.52 18.8963 4.72 18.7763 3.968 18.5362C3.216 18.2962 2.528 17.9362 1.904 17.4562C1.28 16.9762 0.728 16.3842 0.248 15.6802L1.544 14.2402C2.296 15.3122 3.064 16.0642 3.848 16.4962C4.648 16.9282 5.544 17.1442 6.536 17.1442C7.256 17.1442 7.912 17.0242 8.504 16.7842C9.096 16.5442 9.56 16.2082 9.896 15.7762C10.232 15.3442 10.4 14.8482 10.4 14.2882C10.4 13.9202 10.336 13.5922 10.208 13.3042C10.096 13.0162 9.92 12.7602 9.68 12.5362C9.44 12.3122 9.144 12.1122 8.792 11.9362C8.44 11.7602 8.032 11.6002 7.568 11.4562C7.12 11.3122 6.616 11.1682 6.056 11.0242C5.24 10.8322 4.52 10.6082 3.896 10.3522C3.288 10.0802 2.768 9.75225 2.336 9.36825C1.92 8.98425 1.6 8.54425 1.376 8.04825C1.168 7.53625 1.064 6.93625 1.064 6.24825C1.064 5.59225 1.2 4.98425 1.472 4.42425C1.76 3.86425 2.152 3.38425 2.648 2.98425C3.144 2.56825 3.728 2.24825 4.4 2.02425C5.072 1.80025 5.792 1.68825 6.56 1.68825C7.424 1.68825 8.192 1.80825 8.864 2.04825C9.552 2.27225 10.16 2.60825 10.688 3.05625C11.216 3.50425 11.672 4.04025 12.056 4.66425L10.736 5.96025C10.4 5.43225 10.016 4.97625 9.584 4.59225C9.168 4.20825 8.704 3.92025 8.192 3.72825C7.696 3.52025 7.144 3.41625 6.536 3.41625C5.832 3.41625 5.208 3.53625 4.664 3.77625C4.136 4.01625 3.72 4.35225 3.416 4.78425C3.112 5.20025 2.96 5.68025 2.96 6.22425C2.96 6.62425 3.032 6.98425 3.176 7.30425C3.32 7.60825 3.544 7.88025 3.848 8.12025C4.168 8.34425 4.576 8.55225 5.072 8.74425C5.584 8.92025 6.192 9.08825 6.896 9.24825C7.728 9.44025 8.472 9.67225 9.128 9.94425C9.8 10.2162 10.368 10.5442 10.832 10.9282C11.312 11.2962 11.672 11.7282 11.912 12.2242C12.168 12.7202 12.296 13.2882 12.296 13.9282C12.296 14.9202 12.048 15.7922 11.552 16.5442C11.056 17.2802 10.36 17.8562 9.464 18.2722C8.584 18.6883 7.552 18.8963 6.368 18.8963ZM20.8976 18.8963C19.6496 18.8963 18.5376 18.6163 17.5616 18.0562C16.6016 17.4962 15.8416 16.7202 15.2816 15.7282C14.7376 14.7362 14.4656 13.6082 14.4656 12.3442C14.4656 11.0962 14.7376 9.98425 15.2816 9.00825C15.8416 8.03225 16.6016 7.26425 17.5616 6.70425C18.5376 6.14425 19.6496 5.86425 20.8976 5.86425C22.1296 5.86425 23.2256 6.14425 24.1856 6.70425C25.1616 7.26425 25.9216 8.03225 26.4656 9.00825C27.0256 9.98425 27.3056 11.0962 27.3056 12.3442C27.3056 13.6082 27.0256 14.7362 26.4656 15.7282C25.9216 16.7202 25.1616 17.4962 24.1856 18.0562C23.2256 18.6163 22.1296 18.8963 20.8976 18.8963ZM20.8976 17.1922C21.7776 17.1922 22.5616 16.9842 23.2496 16.5682C23.9376 16.1362 24.4736 15.5602 24.8576 14.8402C25.2416 14.1042 25.4336 13.2722 25.4336 12.3442C25.4336 11.4162 25.2416 10.5922 24.8576 9.87225C24.4736 9.15225 23.9376 8.59225 23.2496 8.19225C22.5616 7.77625 21.7776 7.56825 20.8976 7.56825C20.0176 7.56825 19.2256 7.77625 18.5216 8.19225C17.8336 8.59225 17.2896 9.16025 16.8896 9.89625C16.5056 10.6162 16.3216 11.4322 16.3376 12.3442C16.3216 13.2722 16.5056 14.1042 16.8896 14.8402C17.2896 15.5602 17.8336 16.1362 18.5216 16.5682C19.2256 16.9842 20.0176 17.1922 20.8976 17.1922ZM35.2117 18.8963C34.0277 18.8963 32.9717 18.6163 32.0437 18.0562C31.1157 17.4802 30.3797 16.7042 29.8357 15.7282C29.3077 14.7362 29.0437 13.6162 29.0437 12.3682C29.0437 11.1202 29.3077 10.0082 29.8357 9.03225C30.3797 8.04025 31.1157 7.26425 32.0437 6.70425C32.9717 6.14425 34.0357 5.86425 35.2357 5.86425C36.3077 5.86425 37.2837 6.08025 38.1637 6.51225C39.0437 6.92825 39.7477 7.51225 40.2757 8.26425L39.2197 9.56025C38.9157 9.16025 38.5477 8.80825 38.1157 8.50425C37.6997 8.20025 37.2437 7.96825 36.7477 7.80825C36.2677 7.63225 35.7877 7.54425 35.3077 7.54425C34.4597 7.54425 33.6997 7.76025 33.0277 8.19225C32.3557 8.60825 31.8197 9.17625 31.4197 9.89625C31.0357 10.6162 30.8437 11.4402 30.8437 12.3682C30.8437 13.2962 31.0357 14.1282 31.4197 14.8642C31.8197 15.5842 32.3557 16.1522 33.0277 16.5682C33.6997 16.9842 34.4517 17.1922 35.2837 17.1922C35.7637 17.1922 36.2357 17.1202 36.6997 16.9762C37.1637 16.8162 37.6037 16.5922 38.0197 16.3042C38.4357 16.0162 38.8197 15.6562 39.1717 15.2242L40.2277 16.5202C39.6837 17.2402 38.9557 17.8162 38.0437 18.2482C37.1317 18.6803 36.1877 18.8963 35.2117 18.8963ZM43.0445 18.6562V6.12825H44.8445V18.6562H43.0445ZM43.9325 3.41625C43.4845 3.41625 43.1405 3.30425 42.9005 3.08025C42.6765 2.84025 42.5645 2.52025 42.5645 2.12025C42.5645 1.72025 42.6845 1.40025 42.9245 1.16025C43.1645 0.920249 43.5005 0.80025 43.9325 0.80025C44.3645 0.80025 44.7005 0.920249 44.9405 1.16025C45.1805 1.38425 45.3005 1.70425 45.3005 2.12025C45.3005 2.50425 45.1805 2.81625 44.9405 3.05625C44.7005 3.29625 44.3645 3.41625 43.9325 3.41625ZM54.2954 18.8963C53.0474 18.8963 51.9354 18.6243 50.9594 18.0802C49.9994 17.5362 49.2474 16.7762 48.7034 15.8002C48.1594 14.8242 47.8874 13.7042 47.8874 12.4402C47.8874 11.4642 48.0394 10.5842 48.3434 9.80025C48.6474 9.00025 49.0714 8.30425 49.6154 7.71225C50.1754 7.12025 50.8394 6.66425 51.6074 6.34425C52.3754 6.00825 53.2074 5.84025 54.1034 5.84025C54.9514 5.84025 55.7194 5.99225 56.4074 6.29625C57.1114 6.60025 57.7114 7.02425 58.2074 7.56825C58.7194 8.09625 59.1034 8.72825 59.3594 9.46425C59.6154 10.2002 59.7274 11.0082 59.6954 11.8882L59.6714 12.7282H49.2314L48.9674 11.2162H58.3034L57.8714 11.6242V11.0482C57.8394 10.4722 57.6714 9.92025 57.3674 9.39225C57.0634 8.84825 56.6314 8.40825 56.0714 8.07225C55.5274 7.73625 54.8714 7.56825 54.1034 7.56825C53.2074 7.56825 52.4314 7.75225 51.7754 8.12025C51.1194 8.47225 50.6154 9.00025 50.2634 9.70425C49.9114 10.4082 49.7354 11.2802 49.7354 12.3203C49.7354 13.3122 49.9274 14.1762 50.3114 14.9122C50.6954 15.6322 51.2394 16.1922 51.9434 16.5922C52.6634 16.9922 53.5274 17.1922 54.5354 17.1922C55.1274 17.1922 55.7114 17.0962 56.2874 16.9042C56.8794 16.6962 57.5274 16.2962 58.2314 15.7042L59.1674 17.0002C58.7994 17.3682 58.3594 17.6962 57.8474 17.9842C57.3354 18.2562 56.7754 18.4802 56.1674 18.6562C55.5594 18.8163 54.9354 18.8963 54.2954 18.8963ZM63.98 18.6562V2.84025H65.78V18.6562H63.98ZM61.148 7.85625V6.12825H68.948V7.85625H61.148ZM75.9371 18.8963C74.8491 18.8963 73.8651 18.6163 72.9851 18.0562C72.1051 17.4802 71.4091 16.7042 70.8971 15.7282C70.3851 14.7362 70.1291 13.6162 70.1291 12.3682C70.1291 11.1042 70.3931 9.98425 70.9211 9.00825C71.4491 8.03225 72.1531 7.26425 73.0331 6.70425C73.9291 6.14425 74.9291 5.86425 76.0331 5.86425C76.6891 5.86425 77.2971 5.96025 77.8571 6.15225C78.4171 6.34425 78.9131 6.61625 79.3451 6.96825C79.7931 7.30425 80.1611 7.70425 80.4491 8.16825C80.7531 8.61625 80.9611 9.10425 81.0731 9.63225L80.5451 9.36825L80.6171 6.12825H82.4171V18.6562H80.5931V15.5842L81.0731 15.2722C80.9611 15.7522 80.7451 16.2162 80.4251 16.6642C80.1051 17.0962 79.7131 17.4802 79.2491 17.8162C78.8011 18.1522 78.2891 18.4162 77.7131 18.6082C77.1531 18.8003 76.5611 18.8963 75.9371 18.8963ZM76.3451 17.1682C77.1771 17.1682 77.9211 16.9682 78.5771 16.5682C79.2331 16.1522 79.7451 15.5842 80.1131 14.8642C80.4971 14.1282 80.6891 13.2962 80.6891 12.3682C80.6891 11.4402 80.4971 10.6162 80.1131 9.89625C79.7451 9.17625 79.2331 8.60825 78.5771 8.19225C77.9211 7.77625 77.1771 7.56825 76.3451 7.56825C75.4971 7.56825 74.7451 7.77625 74.0891 8.19225C73.4491 8.60825 72.9371 9.17625 72.5531 9.89625C72.1851 10.6162 72.0011 11.4402 72.0011 12.3682C72.0011 13.2802 72.1851 14.1042 72.5531 14.8402C72.9211 15.5602 73.4331 16.1282 74.0891 16.5442C74.7451 16.9602 75.4971 17.1682 76.3451 17.1682ZM90.0279 18.8963C88.9559 18.8963 87.9959 18.6963 87.1479 18.2962C86.2999 17.8962 85.6279 17.3682 85.1319 16.7122L86.4039 15.6082C86.8679 16.1682 87.4119 16.5922 88.0359 16.8802C88.6759 17.1682 89.3879 17.3122 90.1719 17.3122C90.5719 17.3122 90.9319 17.2722 91.2519 17.1922C91.5719 17.0962 91.8519 16.9602 92.0919 16.7842C92.3319 16.6082 92.5159 16.4002 92.6439 16.1602C92.7719 15.9202 92.8359 15.6562 92.8359 15.3682C92.8359 14.8402 92.6039 14.4002 92.1399 14.0482C91.9319 13.9042 91.6359 13.7602 91.2519 13.6162C90.8679 13.4562 90.4039 13.3042 89.8599 13.1602C88.9639 12.9042 88.2199 12.6482 87.6279 12.3922C87.0359 12.1202 86.5719 11.8082 86.2359 11.4562C85.9959 11.1682 85.8119 10.8562 85.6839 10.5202C85.5719 10.1842 85.5159 9.81625 85.5159 9.41625C85.5159 8.90425 85.6199 8.43225 85.8279 8.00025C86.0519 7.56825 86.3559 7.19225 86.7399 6.87225C87.1399 6.53625 87.6039 6.28825 88.1319 6.12825C88.6759 5.95225 89.2599 5.86425 89.8839 5.86425C90.4759 5.86425 91.0599 5.94425 91.6359 6.10425C92.2119 6.26425 92.7479 6.49625 93.2439 6.80025C93.7399 7.10425 94.1639 7.46425 94.5159 7.88025L93.4119 9.08025C93.1079 8.76025 92.7719 8.47225 92.4039 8.21625C92.0359 7.96025 91.6439 7.76025 91.2279 7.61625C90.8279 7.47225 90.4119 7.40025 89.9799 7.40025C89.5959 7.40025 89.2359 7.44825 88.8999 7.54425C88.5799 7.64025 88.2999 7.77625 88.0599 7.95225C87.8359 8.11225 87.6599 8.31225 87.5319 8.55225C87.4199 8.79225 87.3639 9.05625 87.3639 9.34425C87.3639 9.58425 87.4119 9.80025 87.5079 9.99225C87.6039 10.1842 87.7399 10.3522 87.9159 10.4962C88.1399 10.6722 88.4519 10.8402 88.8519 11.0002C89.2679 11.1442 89.7799 11.2962 90.3879 11.4562C91.0919 11.6482 91.6839 11.8482 92.1639 12.0562C92.6599 12.2482 93.0679 12.4802 93.3879 12.7522C93.8199 13.0722 94.1239 13.4402 94.2999 13.8562C94.4919 14.2722 94.5879 14.7442 94.5879 15.2722C94.5879 15.9762 94.3879 16.6002 93.9879 17.1442C93.6039 17.6882 93.0679 18.1202 92.3799 18.4402C91.6919 18.7443 90.9079 18.8963 90.0279 18.8963Z" fill="#1E554F"/>
</svg>
