<svg width="86" height="71" viewBox="0 0 86 71" fill="none" xmlns="http://www.w3.org/2000/svg">
<path d="M1.74613 41.612C0.299736 39.9161 0.032595 37.9764 0.995146 36.3393C2.02686 34.5842 4.49228 33.9366 6.19102 34.9743C6.89443 35.4039 7.23844 36.0614 7.14723 36.8054C6.96888 36.872 6.93461 36.7192 6.86952 36.632C5.95363 35.4035 4.16701 35.0926 2.99138 35.9602C1.72544 36.8943 1.52429 38.674 2.55133 39.8527C3.63197 41.0928 5.41044 41.4815 7.0986 40.8293C9.1726 40.0277 10.203 38.4357 10.6862 36.4766C10.9867 35.2581 10.9384 35.267 9.68952 34.8536C6.51932 33.8046 4.35486 31.8317 3.86347 28.623C3.34656 25.2473 4.26169 22.0511 8.09513 20.3639C8.90169 20.0088 8.89792 19.9796 8.56584 19.1663C7.37511 16.2502 8.95334 13.3083 12.0917 12.6944C13.3221 12.4537 14.5399 12.5568 15.4728 13.5064C15.8985 13.9395 16.1862 14.4439 15.9804 15.0793C15.7206 15.0679 15.6997 14.8741 15.6128 14.7494C14.933 13.7719 13.77 13.4226 12.5776 13.8436C11.3772 14.2676 10.6321 15.3832 10.8164 16.4993C10.8621 16.7767 10.9179 17.0586 11.019 17.3212C11.7415 19.1943 13.3476 19.6841 15.0793 18.5408C15.6023 18.1954 16.0781 17.7814 16.547 17.3698C17.5219 16.5137 18.5856 15.7733 19.7205 15.1204C19.8445 15.049 20.0026 15.0083 20.032 14.8231C19.9935 14.5927 19.7632 14.4861 19.6048 14.3326C17.6589 12.4478 17.6217 9.67762 18.7971 7.78213C19.7143 6.30297 21.6388 5.56695 23.3877 5.98114C24.0929 6.14804 24.6752 6.48498 24.9925 7.13677C24.8067 7.3373 24.6583 7.19876 24.517 7.13791C23.5846 6.73697 22.618 6.63606 21.7817 7.23938C20.8913 7.88148 20.7866 8.8635 20.9636 9.83412C21.2484 11.3952 22.8732 12.784 24.5419 12.9766C24.9463 13.0232 25.1456 12.9324 25.2154 12.4877C25.9804 7.60383 29.5654 4.29873 34.7388 3.65108C35.8021 3.5181 36.8655 3.47677 37.9317 3.53535C38.4507 3.564 38.8814 3.43943 39.3066 3.16007C40.9904 2.05405 42.7882 1.12049 44.8593 0.949309C49.1168 0.597548 53.1193 1.14942 56.1668 4.37698C57.7905 6.09645 58.5349 8.22768 59.154 10.4018C59.2754 10.8285 59.3606 11.2647 59.4613 11.6967C59.6966 12.7061 60.3514 13.0896 61.4177 12.8418C62.8339 12.5129 64.355 10.7956 64.4683 9.3977C64.6102 7.64388 62.7537 6.36982 60.993 7.00635C60.7636 7.0893 60.5687 7.28329 60.287 7.23383C60.4332 6.52845 61.2436 5.97245 62.2929 5.8493C64.976 5.53403 67.4319 7.57846 67.5068 10.1242C67.5498 11.5926 67.0755 12.855 66.1193 13.9853C65.9752 14.1556 65.7738 14.2923 65.7203 14.5215C65.7629 14.7294 65.9443 14.8135 66.1048 14.9062C67.4625 15.6908 68.6412 16.6848 69.8022 17.701C70.0678 17.9336 70.3431 18.1624 70.6421 18.3539C72.0168 19.2347 73.4876 19.0359 74.3094 17.8732C75.1321 16.7089 74.7954 15.015 73.561 14.2103C72.0988 13.2571 70.4342 13.6918 69.8096 14.9036C69.764 14.9921 69.711 15.083 69.5448 15.0993C69.336 14.7219 69.5081 14.3738 69.6788 14.0421C70.2486 12.9334 71.7493 12.366 73.2735 12.6683C76.5648 13.3209 78.1038 16.2894 76.72 19.3206C76.5776 19.6323 76.4189 19.9374 76.2585 20.2648C76.9277 20.5939 77.5672 20.9053 78.2037 21.2219C82.4653 23.3399 82.7959 27.4816 81.0233 30.6621C79.8733 32.7257 78.0184 34.0338 75.6762 34.7379C74.7058 35.0296 74.6799 35.066 74.8895 36.0271C75.3837 38.2918 76.5586 40.0411 79.0286 40.7466C80.865 41.2714 82.6399 40.6725 83.4567 39.3156C84.1488 38.1657 83.8537 36.8058 82.7555 36.0849C81.5468 35.2913 80.0906 35.4163 79.2353 36.4109C79.0163 36.6657 78.8727 36.9783 78.6698 37.3041C78.3038 36.8428 78.5329 36.4311 78.6776 36.0597C79.3152 34.4236 81.6273 33.9078 83.3486 34.9973C84.8051 35.9196 85.4523 37.6147 84.995 39.3106C84.4002 41.5173 82.3153 42.9913 79.7992 43.1042C76.8184 43.238 74.3697 42.0431 72.0603 40.4768C70.0455 39.1102 68.5912 37.3265 67.7611 35.1052C67.699 34.939 67.6738 34.7243 67.466 34.6585C66.566 34.3733 65.661 34.1018 64.6572 33.7943C64.86 34.3572 65.2194 34.6441 65.6158 34.8739C67.2786 35.8378 68.3529 37.2511 68.9796 38.9485C69.722 40.9597 71.1578 42.327 73.1111 43.2872C74.9929 44.2123 76.7312 45.3157 77.7859 47.1221C79.044 49.2767 79.3025 51.4692 77.8227 53.647C77.4716 54.1637 76.9934 54.5682 76.3972 54.8343C76.1456 54.9466 75.8925 55.043 75.5643 54.847C75.862 54.4938 76.2235 54.2124 76.4538 53.8265C77.8463 51.4913 76.8084 48.4296 74.1577 47.1017C73.4757 46.7599 72.7588 46.5004 72.0124 46.3154C70.2995 45.8908 68.5746 45.4967 67.0495 44.4144C66.9988 45.0141 67.2292 45.3737 67.6158 45.6868C68.1247 46.099 68.7467 46.3349 69.2958 46.6849C72.1537 48.5069 73.5572 51.1699 74.0119 54.2762C74.5719 58.1016 72.9092 61.1895 70.0657 63.7996C69.9055 63.9467 69.746 64.1287 69.3553 64.0867C69.5359 63.8213 69.6885 63.5981 69.8396 63.3742C70.7883 61.9706 71.572 60.4958 71.8999 58.8451C72.5766 55.4359 71.3375 52.7524 68.3926 50.7333C67.4541 50.0898 66.4295 49.5922 65.3691 49.1542C65.0855 49.0372 64.8574 48.9996 64.6394 49.2698C63.1552 51.1086 61.0972 51.7631 58.7417 51.8077C58.14 51.8191 57.5548 51.9502 56.9882 52.1351C55.924 52.4824 55.5345 53.0989 55.7043 54.1306C56.0323 56.125 57.8145 58.002 59.8802 58.4437C60.9207 58.666 61.936 58.5807 62.7075 57.7499C63.2534 57.1619 63.3037 56.4687 62.8727 55.8558C62.4122 55.2009 61.5987 54.8889 60.8704 55.0876C60.3657 55.2253 60.0445 55.7164 60.1098 56.2734C60.128 56.431 60.1892 56.5845 60.0711 56.8539C59.4696 56.4171 59.3345 55.8433 59.3404 55.2569C59.3585 53.4455 61.1847 51.9673 63.0996 52.1706C65.3087 52.4049 66.8562 53.4875 67.5821 55.4644C68.3813 57.6411 67.8884 59.6374 66.1746 61.2599C63.6585 63.6423 60.6268 63.887 57.3861 62.8822C55.4639 62.2861 53.9391 61.1359 52.6339 59.6995C52.0246 59.0286 51.6757 59.0597 51.2228 59.8485C50.6245 60.8902 50.6061 61.9737 51.1588 63.038C51.7395 64.1561 52.8643 64.2694 53.996 64.3209C54.8977 64.3618 55.7112 64.6313 56.4492 65.1059C57.8429 66.0024 58.0264 67.356 56.934 68.5887C55.9613 69.6865 54.6999 70.3283 53.2392 70.6239C50.8535 71.1071 48.6088 70.7359 46.5387 69.5202C45.6383 68.9912 44.996 68.245 44.7579 67.243C44.6863 66.9417 44.6001 66.6186 44.9435 66.2342C45.1861 66.9671 45.5306 67.5588 46.1099 67.989C48.0081 69.3983 50.1623 69.8215 52.5051 69.3979C53.3512 69.2449 54.0287 68.7769 54.5335 68.1081C55.072 67.3951 54.8974 66.739 54.0471 66.3921C53.1239 66.0155 52.1247 66.0429 51.1487 65.9957C50.4401 65.9614 49.742 65.8843 49.0614 65.7161C46.2228 65.0144 44.9779 62.2991 46.261 59.6491C46.6757 58.7927 47.3077 58.0822 47.948 57.3771C48.477 56.7946 49.0167 56.2188 49.387 55.5283C49.5374 55.2478 49.7366 54.972 49.6659 54.6205C49.3569 54.4921 49.1781 54.7183 48.9779 54.8386C47.5881 55.6724 46.2693 56.6017 44.9418 57.5198C43.2869 58.6645 42.2337 58.6707 40.5786 57.5188C39.3402 56.6568 38.1186 55.7737 36.8382 54.9664C36.5576 54.7897 36.2871 54.603 35.9093 54.5096C35.9264 55.2121 36.2572 55.7512 36.6168 56.2735C37.0727 56.9356 37.6577 57.5014 38.1931 58.1043C38.859 58.8543 39.3977 59.6587 39.5721 60.6557C39.8039 61.9811 39.0683 63.273 37.7426 63.7878C37.1055 64.0352 36.4194 64.1062 35.7639 64.2857C34.3274 64.6792 33.9548 65.6911 34.8205 66.8339C35.5053 67.7381 36.6864 68.0503 37.9773 67.6682C39.3832 67.2523 40.1111 66.4507 40.1118 65.2724C40.1123 64.8784 40.0366 64.4843 39.9945 64.0798C40.8578 64.262 41.4187 65.0733 41.4433 66.128C41.4814 67.7592 40.2402 69.3657 38.4208 70.0403C34.9857 71.3137 31.0617 68.7528 31.0985 65.2618C31.11 64.1905 31.6554 63.4837 32.8475 63.2679C33.825 63.091 34.645 62.6611 35.4656 62.1912C36.6677 61.5034 36.7604 60.6801 35.7403 59.7498C35.6038 59.6254 35.4602 59.5082 35.2652 59.4072C35.6379 59.9887 35.9629 60.5738 35.8069 61.2777C35.6594 61.9452 35.0322 62.4338 34.2846 62.4161C34.6263 61.7331 34.9905 61.0594 34.6915 60.2853C34.6478 60.172 34.6154 60.0543 34.5647 59.9441C34.0907 58.9173 33.7236 58.8676 33.0011 59.7337C30.9107 62.2402 28.1871 63.5471 24.7969 63.5394C21.7466 63.5325 19.2521 61.9622 18.2632 59.4772C17.1515 56.6836 18.4636 53.6209 21.1853 52.6569C22.997 52.0152 24.9173 52.4914 25.816 53.8329C26.372 54.6628 26.5136 55.5576 26.102 56.4859C26.0083 56.6973 25.8972 56.9406 25.5733 56.9308C25.4091 56.775 25.4691 56.5854 25.4615 56.4117C25.417 55.3797 24.5133 54.8776 23.5307 55.3414C22.8208 55.6765 22.3948 56.3212 22.4783 56.9335C22.5876 57.7342 23.2785 58.3921 24.1865 58.5122C25.68 58.7098 26.9845 58.2722 28.0894 57.3418C28.9856 56.5873 29.5935 55.6466 29.853 54.5224C30.0354 53.7328 29.8419 53.3233 29.0836 52.9381C28.0807 52.4287 26.9701 52.2919 25.8691 52.1959C23.8153 52.0169 22.235 51.1171 21.0402 49.5642C20.8294 49.2899 20.6361 49.0384 20.2084 49.2189C17.7478 50.2573 15.6131 51.6464 14.4533 54.0538C13.2385 56.5761 13.6681 59.005 14.9842 61.3698C15.2732 61.889 15.6024 62.3836 15.9814 62.8491C16.0677 62.9552 16.1817 63.0689 16.0773 63.2378C15.8081 63.3292 15.6491 63.1256 15.4694 63.0079C13.3378 61.6114 12.148 59.5999 11.7848 57.2644C11.154 53.2083 12.5299 49.7566 15.8256 47.033C16.3599 46.5914 16.9979 46.2958 17.6069 45.9607C17.7359 45.8898 17.8667 45.8154 17.9768 45.7219C18.1962 45.5357 18.5269 45.3219 18.3481 45.0305C18.1548 44.7152 17.8483 44.9945 17.6228 45.0945C16.3558 45.6559 15.0056 45.9614 13.6549 46.2648C11.6874 46.7066 10.0296 47.5365 9.03685 49.3147C8.01313 51.1479 8.3665 53.9603 10.2021 54.9807C10.2487 55.0067 10.2673 55.0777 10.3032 55.1343C10.0911 55.4207 9.80686 55.3222 9.54802 55.2656C8.47825 55.0314 7.91981 54.2694 7.49818 53.4091C6.14995 50.6576 6.91588 47.4674 9.42299 45.2482C10.3197 44.4545 11.3318 43.816 12.41 43.2752C14.3073 42.3235 15.7471 41.0204 16.5181 39.0638C17.1738 37.4002 18.3606 36.0792 19.899 35.0428C20.2712 34.792 20.6815 34.5505 20.8689 34.0576C20.3859 33.9521 20.0361 34.2524 19.6385 34.3113C18.4008 34.494 17.8374 35.2175 17.273 36.2634C15.0782 40.3316 11.503 42.7347 6.67622 43.2709C4.84641 43.4742 3.10252 43.0098 1.74613 41.612ZM40.0816 52.2379C40.9453 52.8677 41.9505 52.7569 42.9573 52.8131C44.1035 52.8772 45.0475 52.5923 45.9327 51.9499C47.9062 50.5182 49.7111 48.9193 51.3225 47.1308C52.5259 45.7948 53.429 44.2913 53.9806 42.6123C54.0817 42.305 54.2685 41.9903 54.1218 41.5605C53.1341 42.3598 52.5543 43.3566 51.9782 44.5111C51.7885 43.3198 52.2999 41.9987 53.2158 41.0405C53.7309 40.5016 54.2414 39.9587 54.7398 39.4063C54.8955 39.2334 55.0741 39.0475 54.9998 38.6338C54.0782 39.2234 53.3566 39.9832 52.254 40.3236C52.337 39.977 52.536 39.8494 52.686 39.6905C53.1552 39.1938 53.6262 38.6985 54.0909 38.1981C54.4799 37.7792 54.6351 37.3406 54.4222 36.7618C54.0315 35.6995 53.871 34.6083 54.297 33.5052C54.3334 33.4111 54.3878 33.2694 54.2058 33.1718C53.807 33.5659 53.442 33.9651 53.6662 34.5611C53.0357 34.802 52.9039 35.6722 52.0675 35.5526C52.0212 35.5459 51.9183 35.6548 51.9045 35.7215C51.8246 36.1072 51.5711 36.0464 51.2731 35.9853C50.8113 35.8902 50.3382 35.8271 50.1641 36.4184C49.5279 36.2324 49.0434 35.7373 48.3802 35.8423C48.2301 36.0674 48.5363 36.1988 48.4107 36.416C48.001 36.4658 47.7111 36.1894 47.3992 36.0085C46.3421 35.3955 46.3482 35.3864 45.8038 36.3245C45.2509 36.1569 45.5319 35.4585 45.0392 35.2252C44.3545 35.7785 44.57 36.6463 44.2372 37.3419C43.9353 37.093 43.9419 36.8225 43.9382 36.5664C43.9281 35.8603 43.8891 35.1511 43.943 34.4484C44.0535 33.0039 44.549 31.697 45.6198 30.6145C46.2585 29.9689 47.0291 29.5074 47.8464 29.1026C49.3231 28.3713 50.8328 27.7051 52.3621 27.0784C52.6522 26.9595 52.8302 26.7677 52.7195 26.4641C52.5919 26.1143 52.291 26.2668 52.0733 26.3411C51.4498 26.554 50.8085 26.5317 50.17 26.5024C48.9909 26.4484 48.3471 25.492 48.7632 24.451C48.9882 23.8876 49.4534 23.5474 49.9713 23.2445C50.545 22.9089 50.5588 22.4215 50.0087 22.032C49.8015 21.8855 49.5599 21.8152 49.3 21.7726C47.6066 21.495 45.9679 21.7249 44.4068 22.3406C43.1926 22.8195 42.0173 22.8848 40.8029 22.4166C40.5659 22.3253 40.3181 22.2599 40.0757 22.1812C38.2355 21.5848 36.3664 21.4506 34.4615 21.8627C34.0737 21.9465 33.7236 22.0863 33.5147 22.4255C33.3154 22.7494 33.2826 23.0244 33.7545 23.1856C34.1345 23.3155 34.5055 23.4781 34.8605 23.6608C35.4921 23.9859 35.8685 24.4768 35.7864 25.1853C35.7062 25.8755 35.2166 26.3069 34.4024 26.5155C33.046 26.8632 31.8348 26.2845 30.5979 25.9611C30.2261 25.8639 30.0598 25.3686 30.3065 24.9751C30.5278 24.6218 30.8821 24.6956 31.2077 24.8706C31.3557 24.9501 31.486 25.0592 31.634 25.139C31.9901 25.3313 32.3652 25.4878 32.7862 25.4363C33.0505 25.404 33.2767 25.2721 33.3789 25.0257C33.4682 24.8109 33.3631 24.6409 33.1927 24.4899C32.5781 23.9453 30.9615 23.8686 30.2941 24.3577C29.7328 24.7691 29.5727 26.1159 30.0197 26.8455C30.7592 26.5774 31.5177 26.6022 32.2602 26.8523C34.4788 27.6 36.6162 28.5179 38.6485 29.6446C39.6684 30.2102 40.4611 30.9947 40.9675 32.0077C41.7811 33.6351 41.8391 35.3503 41.5729 37.0959C41.5547 37.2148 41.5354 37.3413 41.3308 37.3751C40.9904 36.7075 41.1956 35.8124 40.4626 35.2719C39.9708 35.5358 40.2512 36.2155 39.7009 36.4166C39.6527 36.363 39.5982 36.3257 39.5769 36.2758C39.2434 35.4924 39.2482 35.4976 38.4687 35.9649C38.0863 36.1941 37.7243 36.4886 37.239 36.4789C37.1413 36.1977 37.5304 36.007 37.268 35.7414C36.567 35.8118 36.0053 36.2647 35.3744 36.4499C35.1622 36.3144 35.2689 35.9681 35.0537 35.9906C34.3675 36.0625 33.8528 35.7396 33.2542 35.5288C32.6147 35.3034 32.6278 34.5946 32.0182 34.4796C32.0759 33.5426 31.1991 33.0848 30.8 32.382C30.692 32.1919 30.5813 31.9356 30.284 31.9311C30.1588 32.0107 30.161 32.1161 30.1604 32.2151C30.1535 33.3035 30.2211 34.3938 30.0488 35.4775C30.0225 35.6435 30.1174 35.7845 30.1814 35.9354C30.8146 37.4305 31.8758 38.6312 33.0818 39.7361C33.2396 39.8808 33.4844 39.9819 33.4532 40.2897C33.3687 40.2897 33.2791 40.3129 33.2122 40.2861C32.1792 39.8738 31.3888 39.1382 30.4819 38.3876C30.6918 39.16 31.1485 39.6651 31.603 40.1684C32.1296 40.7513 32.7134 41.2926 33.1218 41.962C33.5683 42.6943 33.8379 43.4696 33.66 44.3475C33.1121 43.309 32.507 42.3344 31.5121 41.5652C31.4039 41.8475 31.4457 42.0214 31.4976 42.198C31.7957 43.2115 32.1702 44.1967 32.7397 45.1057C34.5614 48.014 37.1967 50.1804 40.0816 52.2379ZM58.3743 22.9532C58.3097 22.9081 58.2452 22.8631 58.1306 22.7833C59.262 24.4104 60.9871 25.3288 62.6868 26.006C64.215 26.615 66.0394 26.5765 67.9032 26.3883C67.3549 27.1116 66.5157 27.1097 65.9787 27.5851C66.0753 27.687 66.1188 27.7647 66.1868 27.7997C67.9647 28.7138 69.8584 29.1097 71.8665 28.801C72.6773 28.6764 73.4019 28.2962 73.9091 27.6462C74.4789 26.9163 74.3547 26.1112 73.5793 25.584C72.7007 24.9868 71.6799 24.8725 70.6453 24.9617C69.6279 25.0494 68.6131 25.1962 67.6075 25.37C64.1406 25.9695 61.1016 25.1289 58.3743 22.9532ZM56.5925 6.38065C55.5108 4.66717 53.5338 3.11631 52.3784 3.08881C52.6966 3.27652 53.0042 3.45268 53.3056 3.63783C53.4923 3.75256 53.5587 3.92288 53.4406 4.1066C53.3239 4.28804 53.1496 4.2212 52.9882 4.14894C52.7629 4.04817 52.5367 3.94925 52.311 3.84962C54.3068 5.0835 55.1919 6.05825 55.0075 6.94164C54.9663 6.94663 54.9205 6.96488 54.885 6.9539C54.805 6.9291 54.7173 6.90416 54.6552 6.85441C52.7444 5.32138 50.461 5.13666 48.1205 5.34076C45.4364 5.57508 42.7998 5.40062 40.1666 4.89351C38.2544 4.52507 36.3318 4.48117 34.4326 5.06297C36.6737 4.64137 38.8279 5.12269 40.9721 5.61912C43.3924 6.17954 45.8166 6.49496 48.3223 6.23071C49.8378 6.07094 51.3435 6.22886 52.755 6.8939C54.6046 7.76546 55.9311 9.10822 56.8937 10.8075C57.0261 11.0411 57.0948 11.3354 57.4898 11.4939C57.9066 9.66865 57.5305 8.02786 56.5925 6.38065ZM16.4543 29.125C17.4583 28.9763 18.4126 28.6778 19.2548 28.1427C19.822 27.7822 20.4156 27.5992 21.0899 27.5252C22.3558 27.3867 23.5875 26.3086 23.8786 25.0208C23.5597 25.6749 23.143 26.0513 22.706 26.399C21.4558 27.3937 20.0758 27.7972 18.4967 27.1328C17.8535 26.8622 17.2123 26.587 16.5767 26.3006C15.8066 25.9537 15.0616 25.5516 14.2258 25.3521C13.2018 25.1078 12.0544 25.5881 11.6847 26.4106C11.3315 27.1963 11.6928 27.9602 12.7036 28.5685C13.8309 29.247 15.0681 29.3102 16.4543 29.125ZM10.2726 29.8597C9.24268 28.4073 9.39293 26.9119 10.2058 25.3914C10.0171 25.3539 9.92737 25.3068 9.85971 25.3269C7.43431 26.0412 6.43838 28.0111 7.41437 29.9197C8.54953 32.1392 11.585 33.5141 14.2797 33.0251C14.6661 32.955 15.1195 33.0573 15.5008 32.6903C13.4876 32.1778 11.5971 31.5599 10.2726 29.8597ZM70.1564 32.7991C71.0805 33.0121 72.0246 33.0324 72.9591 32.9538C74.9165 32.7898 76.5989 32.0687 77.7824 30.5366C78.4358 29.6905 78.8585 28.7523 78.5731 27.6544C78.2573 26.4392 76.5621 25.1818 75.3824 25.3035C75.2931 25.4873 75.4351 25.6075 75.5267 25.7352C76.4645 27.0423 76.3709 28.348 75.507 29.6413C74.5375 31.093 73.0381 31.8239 71.3624 32.2955C70.9551 32.4102 70.5302 32.4683 70.1149 32.5586C69.9352 32.5978 69.897 32.6719 70.1564 32.7991ZM65.071 56.6333C64.9838 56.3266 64.8967 56.0198 64.8096 55.7133C65.111 56.9848 64.821 58.0787 63.7816 58.9541C62.5012 60.0322 60.9616 60.1902 59.3875 59.8438C56.0803 59.1156 53.6351 55.7288 54.0922 52.5587C54.3692 50.6382 55.295 49.0892 57.1892 48.159C58.0918 47.7156 59.0595 47.6541 60.0501 47.6203C61.4893 47.5712 62.6294 46.6427 62.7421 45.4941C62.169 46.6683 60.9168 47.2627 59.394 47.0589C57.5924 46.8179 56.1532 47.4342 55.0635 48.751C53.5608 50.5667 53.3296 52.6751 53.7944 54.8427C54.4621 57.9567 57.7609 60.8459 61.5478 60.3429C63.5624 60.0752 65.1107 58.5462 65.071 56.6333ZM30.8382 49.0949C29.6508 47.758 28.1776 47.0648 26.2868 47.2003C24.8652 47.3024 23.6285 46.9778 22.9957 45.5832C23.3267 47.0451 24.315 47.7519 25.9963 47.7567C28.1492 47.763 29.8616 48.5317 30.9365 50.3498C33.1775 54.1395 30.2957 59.0128 26.2784 59.8945C24.6947 60.242 23.2054 60.0142 21.9531 58.9772C20.9047 58.109 20.7459 56.9727 21.031 55.7365C20.6364 56.3873 20.5532 57.0653 20.7635 57.7738C21.2844 59.5283 23.3182 60.6794 25.4695 60.44C31.001 59.8244 34.0334 53.5173 30.8382 49.0949ZM65.4361 15.5948C64.4174 14.9425 63.2789 14.5386 62.1235 14.1686C59.5353 13.3392 56.85 13.0055 54.1424 12.8358C52.1886 12.7132 50.2562 12.8483 48.433 13.6372C47.7189 13.9464 47.1445 14.3339 46.859 14.7807C48.9373 13.5852 51.202 13.2702 53.5409 13.3821C55.4361 13.4727 57.3201 13.7177 59.1791 14.0866C62.2904 14.7039 65.2407 15.6464 67.5254 17.8917C67.6897 18.053 67.821 18.2771 68.1386 18.3612C67.4696 17.2304 66.6374 16.3119 65.4361 15.5948ZM27.5009 34.1864C27.0283 35.6488 26.1808 36.8798 24.9682 37.8948C23.9146 38.7766 22.8232 39.6213 21.8887 40.6232C21.1883 41.3737 20.6562 42.2184 20.3436 43.1752C20.0512 44.0707 20.0787 44.9789 20.2204 46.0005C20.5003 45.7276 20.4404 45.498 20.4469 45.2931C20.4636 44.7673 20.5473 44.2513 20.6877 43.7446C21.1115 42.2148 22.1606 41.0902 23.3735 40.0715C24.5523 39.0812 25.8218 38.1802 26.812 37.0028C28.2974 35.2366 28.5724 32.9273 27.4387 31.2006C27.7084 32.2218 27.7885 33.154 27.5009 34.1864ZM28.0867 21.7896C27.7219 22.6074 27.4247 23.4466 27.1849 24.3045C26.4627 26.888 24.8288 28.7236 22.2036 29.7718C19.0387 31.0353 15.8097 31.3803 12.3781 30.4099C12.6891 30.6869 12.9864 30.7801 13.275 30.8798C15.5884 31.6794 17.9364 31.5431 20.267 31.0149C22.4683 30.5162 24.4214 29.5966 25.8591 27.8426C27.3739 25.9949 27.5299 23.711 28.2294 21.6007C28.2128 21.6084 28.1905 21.6118 28.1805 21.6244C28.155 21.6563 28.1351 21.6922 28.0867 21.7896ZM62.09 40.1795C62.2979 40.353 62.506 40.5263 62.7135 40.7001C63.9061 41.6991 64.8343 42.8573 65.1288 44.3768C65.2341 44.919 65.2792 45.4714 65.374 46.1869C65.6068 45.481 65.6519 44.9449 65.5471 44.38C65.1478 42.2272 63.8299 40.6394 62.0694 39.3349C61.1301 38.6389 60.1252 38.0223 59.1824 37.3302C58.0426 36.4934 57.714 35.3971 58.1676 34.1006C58.3165 33.6752 58.4829 33.255 58.6958 32.6865C58.2049 33.2428 57.8243 33.675 57.5857 34.1978C57.0453 35.3828 57.3927 36.3844 58.2721 37.3015C59.3607 38.4369 60.7608 39.195 62.09 40.1795ZM56.0575 16.4399C56.651 16.7633 57.2265 17.1112 57.7081 17.5777C59.374 19.1914 60.6135 21.0497 61.334 23.2073C61.4142 23.4468 61.419 23.7435 61.7464 23.8984C61.9156 19.0335 55.8716 14.0751 51.0134 15.2338C52.873 15.3021 54.4924 15.6085 56.0575 16.4399ZM27.6195 15.4486C28.639 14.5598 29.6225 13.6302 30.6856 12.7907C32.791 11.1281 35.2376 10.4935 37.9646 10.7885C38.9362 10.8937 39.8311 11.237 40.9104 11.6194C40.3903 11.171 40.0123 10.8521 39.5239 10.6766C37.2067 9.84424 34.9452 9.94772 32.6998 10.956C30.0645 12.1395 28.5022 14.3912 26.6213 16.3292C26.9322 16.0552 27.2432 15.7813 27.6195 15.4486ZM65.5066 30.8994C68.2605 31.411 70.9823 31.5896 73.5594 30.2531C68.1835 31.6883 63.5092 30.2757 59.2517 27.1129C59.297 27.2218 59.3532 27.3057 59.4187 27.3825C60.9793 29.2096 63.0228 30.3022 65.5066 30.8994ZM66.8589 22.979C68.1966 23.1983 69.4943 22.9741 70.7866 22.6717C70.0601 22.6279 69.3342 22.656 68.6114 22.6227C66.5242 22.526 64.8861 21.7894 64.1741 19.7707C64.0802 19.5044 63.9411 19.25 63.8003 19.0013C63.5039 18.4776 63.1456 17.9977 62.625 17.6379C63.2911 18.4848 63.5479 19.4909 63.9039 20.4564C64.3864 21.7644 65.2387 22.6938 66.8589 22.979ZM53.8506 25.1059C53.3805 24.9886 53.0215 24.721 52.6898 24.393C52.1606 23.8704 51.437 23.9098 50.9282 24.4627C50.5829 24.8378 50.6883 25.2041 51.2011 25.3182C51.5777 25.402 51.9664 25.3635 52.3414 25.2754C52.8545 25.155 53.255 25.3713 53.3313 25.7993C53.4658 26.5562 53.8796 26.6532 54.5441 26.4605C54.6812 26.4206 54.8403 26.4491 54.9894 26.4459C55.1964 26.4411 55.4566 26.509 55.5388 26.2593C55.6156 26.0262 55.4621 25.8343 55.2805 25.6813C54.8998 25.3606 54.4149 25.2647 53.8506 25.1059ZM73.5807 45.0866C72.8596 44.7227 72.0834 44.4686 71.2925 44.3318C68.905 43.9187 67.4618 42.5363 66.6178 40.475C66.4246 40.003 66.1783 39.5505 65.9565 39.089C66.0553 39.7187 66.2697 40.3018 66.4579 40.8923C67.0841 42.856 68.436 44.0815 70.5557 44.5725C71.735 44.8457 72.9189 45.1261 73.9944 45.6871C74.4894 45.9453 74.9675 46.2324 75.4532 46.5063C75.0112 45.8521 74.3488 45.4774 73.5807 45.0866ZM65.8801 18.804C66.7395 20.3877 68.082 21.2341 69.9881 21.3871C70.9662 21.4656 71.9462 21.4274 72.926 21.5517C73.8944 21.6746 74.8464 21.8544 75.7981 22.0531C74.1515 21.3238 72.392 21.0728 70.6083 20.9402C68.9029 20.8134 67.4713 20.2195 66.4425 18.8799C66.1706 18.526 65.905 18.1628 65.4113 17.7822C65.595 18.1864 65.7173 18.4555 65.8801 18.804ZM33.1275 15.9355C32.1168 16.2354 31.2149 16.7121 30.4215 17.3651C33.9098 15.3087 39.3007 15.2569 41.9779 18.3816C41.4579 17.3793 40.655 16.6486 39.5913 16.1507C37.5049 15.1742 35.3744 15.331 33.1275 15.9355ZM36.5066 13.0625C35.4291 13.1468 34.4339 13.4522 33.5265 13.9955C34.2131 13.9351 34.878 13.7947 35.5513 13.7244C36.1539 13.6616 36.2 13.7303 36.2539 14.3092C37.158 14.353 38.0343 14.5662 38.9206 14.7572C38.3765 14.2069 37.6778 13.9944 36.7658 13.9754C37.2816 13.443 37.7426 13.6489 38.1774 13.6704C38.6475 13.6937 39.0735 13.9828 39.6016 13.9094C39.0348 13.2621 38.2273 13.0407 36.5066 13.0625ZM18.4493 42.3915C19.1133 41.2308 19.3196 40.714 19.317 40.1989C19.2818 40.2375 19.2478 40.2634 19.2294 40.2969C19.1605 40.4219 19.0965 40.5495 19.0311 40.6763C18.0417 42.5939 16.6805 44.0879 14.285 44.4247C13.9491 44.472 13.6112 44.555 13.2964 44.674C12.7069 44.8966 12.1335 45.1579 11.5535 45.4029C12.6722 45.0661 13.8194 44.9197 14.9386 44.6801C16.4074 44.3657 17.5672 43.6513 18.4493 42.3915ZM40.1295 9.0857C40.9752 9.37404 41.8418 9.39057 42.7264 9.27527C41.0766 9.1259 39.6221 8.46371 38.1385 7.8497C36.3466 7.10812 34.4948 7.17781 32.6488 7.69476C34.1813 7.50035 35.7136 7.44691 37.1965 7.94362C38.16 8.26631 39.0898 8.67864 40.1295 9.0857ZM18.243 20.0348C17.507 20.9715 16.5115 21.3355 15.291 21.3167C14.4142 21.3031 13.5358 21.3962 12.658 21.4418C12.6607 21.4998 12.6634 21.5577 12.6661 21.6156C13.5572 21.6156 14.4505 21.5778 15.3389 21.6235C17.169 21.7177 18.3872 20.8875 19.1992 19.4247C19.7403 18.4497 20.1726 17.4125 21.0991 16.6698C20.425 16.9915 19.995 17.5238 19.6065 18.1021C19.1837 18.7312 18.7367 19.3459 18.243 20.0348ZM36.605 32.8454C36.93 32.8123 37.2855 32.957 37.5771 32.709C37.0996 31.7167 34.8939 31.2049 33.7663 31.8646C34.5165 32.6325 35.5017 32.7426 36.605 32.8454ZM27.5991 45.0669C28.3975 44.8408 29.1721 45.1225 30.0257 45.221C29.6569 44.6998 29.1808 44.4897 28.6406 44.4287C27.5505 44.3056 26.472 44.4258 25.4043 44.6431C25.2016 44.6843 24.9363 44.7044 24.933 44.9639C24.9298 45.2004 25.1837 45.2639 25.3682 45.3564C25.5698 45.4576 25.7788 45.4258 25.9916 45.3802C26.4893 45.2739 26.9892 45.1758 27.5991 45.0669ZM50.0063 31.5948C49.1935 31.7461 48.4374 31.9867 47.9196 32.704C49.1857 33.0836 51.3071 32.5903 51.6911 31.8552C51.2287 31.4463 50.6555 31.6087 50.0063 31.5948ZM57.0762 44.191C56.5423 44.299 56.0483 44.4625 55.7177 45.0206C56.2882 44.968 56.7322 44.8013 57.2094 44.8309C57.6818 44.8601 58.1344 44.9726 58.5948 45.0555C58.992 45.1271 59.3943 45.1838 59.797 45.2126C60.051 45.2307 60.3719 45.2139 60.4255 44.9197C60.484 44.5972 60.1403 44.5369 59.9101 44.4891C59.0148 44.304 58.1161 44.1176 57.0762 44.191ZM31.2352 29.6237C31.7162 29.7689 32.1979 29.7832 32.6713 29.6059C32.9178 29.5136 33.1135 29.36 33.1514 29.0889C33.1918 28.7997 32.9913 28.6448 32.7657 28.5191C32.3749 28.3013 31.96 28.1551 31.4933 28.2022C31.0781 28.2441 30.6616 28.3164 30.5499 28.7705C30.4399 29.2168 30.7823 29.4173 31.2352 29.6237ZM52.3559 29.1827C52.454 29.7852 52.9824 29.8634 53.4572 29.9047C53.9683 29.9495 54.4888 29.8474 54.8358 29.4284C55.0901 29.121 54.9211 28.8619 54.6483 28.6509C54.0563 28.1928 52.7712 28.4437 52.3559 29.1827ZM46.0153 11.3669C48.1452 10.1471 50.4574 9.98392 52.8606 10.3488C49.7861 9.07131 45.8695 10.4082 45.2284 11.8198C45.4637 11.6829 45.699 11.5457 46.0153 11.3669ZM55.7023 33.0045C55.2528 34.2798 55.3281 35.0162 56.0211 35.6027C55.7103 33.654 56.5205 32.0829 57.7143 30.6265C56.8909 31.2807 56.1828 31.9998 55.7023 33.0045ZM75.0349 40.0693C75.2681 40.2271 75.5009 40.3846 75.7341 40.5421C74.5876 39.1731 73.5356 37.7334 71.9369 36.7923C72.8285 37.9669 73.7865 39.0839 75.0349 40.0693ZM16.5393 23.0349H14.479C17.0059 23.7536 18.6758 23.5146 19.2691 22.1948C18.4203 22.6885 17.5767 22.9864 16.5393 23.0349ZM45.9471 17.8459C45.7189 18.0019 45.4336 18.0978 45.1944 18.4893C46.761 17.8162 48.2623 17.5706 49.8251 17.6293C48.5249 17.1873 47.249 17.0431 45.9471 17.8459ZM13.3499 20.5045C13.9977 20.3717 14.664 20.301 15.2631 19.9964C13.3848 20.4545 11.3866 20.3258 9.57838 21.1288C10.7998 20.927 12.0213 20.725 13.3499 20.5045ZM22.568 14.7757C21.2675 15.1044 20.6411 15.413 20.1974 15.9476C21.5008 15.2766 22.8954 14.9362 24.3656 14.7652C23.8042 14.7652 23.2424 14.7652 22.568 14.7757ZM34.5339 34.2301C34.4037 34.2268 34.2687 34.0774 34.139 34.2369C34.8525 34.8492 36.6559 34.9236 37.5824 34.2771C36.5073 34.3167 35.5612 34.4181 34.5339 34.2301ZM49.9279 34.6956C50.4267 34.6631 50.94 34.6787 51.506 34.2149C50.2784 34.3806 49.2163 34.3273 48.054 34.308C48.6751 34.6019 49.2289 34.7092 49.9279 34.6956ZM35.6114 68.7003C35.1346 68.6674 34.7 68.4961 34.2766 68.3098C33.8776 68.1342 33.5408 67.8606 33.2178 67.5741C34.2924 68.8918 35.9724 69.3097 37.8234 68.6986C37.0504 68.803 36.3806 68.7887 35.6114 68.7003ZM12.4952 38.1145C11.9831 38.6872 11.471 39.2599 10.9589 39.8326C11.9207 39.286 12.5888 38.4959 13.2887 37.5731C12.8861 37.6812 12.7537 37.906 12.4952 38.1145ZM71.6134 51.4565C71.6175 51.5648 71.7677 51.6721 71.6201 51.781C71.3852 51.792 71.3445 51.4641 71.0012 51.5312C71.3129 52.1957 71.8137 52.7109 72.2573 53.2699C72.0375 52.6466 72.0181 51.9693 71.6134 51.4565ZM32.2797 20.4086C32.3486 20.3663 32.4176 20.3242 32.4866 20.2819C31.8433 20.4442 31.32 20.7534 31.0055 21.3118C31.3468 20.9508 31.785 20.7042 32.2797 20.4086ZM28.8681 30.8892C28.7738 30.454 28.7794 29.9965 28.5324 29.5946C28.7038 30.143 28.7122 30.7216 28.9103 31.2662C28.902 31.1681 28.8939 31.0701 28.8681 30.8892ZM52.7148 8.42323C52.4818 8.33572 52.2614 8.1758 51.8973 8.28911C52.2959 8.53113 52.6581 8.59312 53.0413 8.61507C52.9557 8.56305 52.8702 8.51117 52.7148 8.42323Z" fill="#024259"/>
<path d="M44.6534 46.1915C44.0635 46.0174 43.5436 46.2714 43.0152 46.237C41.8024 46.1582 40.6076 46.1496 39.408 46.4454C38.8856 46.5741 38.2679 46.5962 37.6365 46.1565C38.8046 45.6019 39.6205 44.7024 40.7445 44.2095C41.1913 44.0136 41.6326 44.0962 42.0432 44.2791C42.5453 44.5027 43.0256 44.5113 43.5187 44.2861C44.1848 43.9821 44.7849 44.1129 45.387 44.4799C46.2436 45.002 46.995 45.6655 48.1048 46.16C46.852 46.736 45.7763 46.366 44.6534 46.1915Z" fill="#024259"/>
<path d="M39.656 41.0008C39.4599 39.9063 39.8218 39.2518 40.7501 39.0667C40.5796 39.3967 40.4189 39.6837 40.2838 39.981C40.2199 40.1215 40.1329 40.295 40.3206 40.4192C40.478 40.5233 40.6118 40.4211 40.7202 40.3283C41.1132 39.9925 41.4792 40.1514 41.8169 40.3929C42.5263 40.9 43.1773 40.9406 43.8818 40.3444C44.3499 39.9483 44.6789 40.0534 45.3314 40.659C45.4856 40.0786 45.2003 39.6433 44.8673 39.2454C45.0709 39.0383 45.2195 39.1505 45.3536 39.2364C46.3818 39.8943 46.3013 41.4691 45.1422 41.8686C44.2891 42.1628 43.7598 42.5888 43.5455 43.4064C43.4588 43.737 43.173 43.9008 42.8279 43.9148C42.4673 43.9293 42.1816 43.7335 42.1065 43.4192C41.907 42.5847 41.4087 42.0951 40.5115 41.9044C40.0771 41.812 39.8218 41.45 39.656 41.0008Z" fill="#024259"/>
<path d="M46.08 48.203C44.4214 49.3912 39.8006 49.164 38.7473 47.3864C39.1943 47.1697 39.609 46.908 40.1508 47.115C40.5021 47.2491 40.8508 47.2692 41.2108 47.1432C41.5805 47.0138 41.974 47.1288 42.3316 47.0925C43.4648 46.9769 44.5931 47.4595 45.7277 47.0521C46.1401 46.904 46.5391 47.1795 46.9529 47.3363C46.8148 47.7919 46.4202 47.9439 46.08 48.203Z" fill="#024259"/>
</svg>
